<svg width="132" height="140" viewBox="0 0 132 140" fill="none" xmlns="http://www.w3.org/2000/svg">
<g clip-path="url(#clip0_67_1117)">
<path d="M69.2677 139.657L70.0714 132.569L74.894 131.001C74.894 131.001 81.5875 128.09 84.4863 126.522C86.5296 125.378 88.493 124.097 90.3629 122.688L95.3567 118.155L101.457 111.159V103.61L107.334 99.9473L108.546 91.4625L109.245 85.639L109.587 83.3202L115.754 79.3017L116.162 72.332L119.759 69.4862L126.624 62.0554L126.967 56.4164L131.855 51.7655C131.859 50.05 131.601 48.344 131.091 46.7062C130.292 44.5865 129.382 42.5107 128.363 40.4875L125.056 35.5731C122.725 32.4338 119.687 29.888 116.188 28.1423C114.433 27.599 112.723 26.9161 111.076 26.1002C110.206 25.5468 109.469 24.7826 108.625 24.1634C105.832 22.0949 102.037 22.1476 98.664 22.1476C95.6202 22.1476 92.3394 22.253 89.6514 20.5666C88.7715 19.8891 87.8372 19.2854 86.858 18.7616C85.0133 17.9447 82.9051 18.3268 80.8892 18.643C78.6399 19.0841 76.3263 19.0841 74.077 18.643C71.8898 18.116 69.9529 16.8775 67.8183 16.1924C61.6254 14.1766 55.9596 16.4691 49.9513 17.7734C47.4378 18.1481 45.0187 18.9976 42.8229 20.2767C38.1443 23.1137 32.7096 24.4516 27.2485 24.1107L23.1243 23.9921H20.5681C18.898 24.1336 17.2768 24.6276 15.8115 25.4414C14.0525 26.2482 12.3757 27.2233 10.8045 28.3531L6.58811 31.7787L4.17685 34.2556C3.24861 35.3259 2.41121 36.4718 1.67335 37.6812C1.12994 38.8298 0.718842 40.0365 0.447959 41.278L0.158081 44.0448L2.79334 61.0672L8.89396 66.8775L11.3974 70.3689L15.3503 71.0672L20.1202 88.3795L22.7554 97.4967C23.2416 98.5788 24.034 99.4949 25.0349 100.132C25.8903 100.744 26.8258 101.236 27.8151 101.594L31.8339 103.096L35.207 108.498L37.6446 111.989H39.397L44.2723 113.439L50.4388 115.652C50.9905 118.49 51.9073 121.245 53.1663 123.847C54.0769 125.919 55.1428 127.918 56.3549 129.829C57.7282 131.56 59.3332 133.094 61.1247 134.387C64.3793 136.838 68.9646 140.092 69.2677 139.657Z" fill="#677131"/>
<path d="M15.4426 71.0672C17.0008 69.846 18.3379 68.3665 19.3955 66.693C19.9066 65.6147 20.5387 64.5981 21.2797 63.6627L25.3248 64.664L29.2777 78.6957L28.4081 82.029L24.9296 82.4506L24.5079 86.4032L27.2618 88.274L30.1605 87.9842L33.336 86.8248L30.0156 93.4783L28.698 95.9289L31.768 103.162C31.768 103.162 24.9296 100.527 23.4933 98.8274C22.0571 97.1278 20.1993 88.4058 20.1993 88.4058L15.4426 71.0672Z" fill="#4C5621"/>
<path d="M50.4388 115.692L56.9084 117.167C58.109 118.531 59.4719 119.744 60.9667 120.777C62.1614 121.254 63.4356 121.5 64.7219 121.502C67.1819 119.856 69.2949 117.743 70.9411 115.283C72.1194 113.295 73.1372 111.215 73.9849 109.065C77.7592 108.057 81.3644 106.499 84.684 104.44C90.3234 100.975 91.6279 99.5257 91.6279 99.5257L93.354 91.4229L103.197 88.1027L104.936 85.3491L108.111 84.1897L106.372 98.946L101.457 103.61V111.159L96.9248 116.429L93.2091 119.763L87.5696 124.835L80.7706 128.3L72.8649 131.634L70.111 132.543L69.3863 137.813L55.4722 128.3C53.268 124.519 51.655 120.422 50.6892 116.153L50.4388 115.692Z" fill="#283308"/>
<path d="M43.3236 77.8261L46.644 83.4651L45.4845 84.9143L45.1946 86.3636L53.2981 91.7128L54.0227 103.57L57.4881 112.978L62.5478 113.979L66.1713 105.31L68.3454 95.1778L73.9848 88.5244L65.1567 90.2635L63.1276 89.5388L61.968 83.4651L59.3723 83.1752L63.5624 77.3913L65.5915 72.9117L61.1116 69.3017L54.8924 69.0118L53.443 74.5059L48.3833 76.6666L43.3236 77.8261Z" fill="#AE9F60"/>
<path d="M121.222 60.4743L123.857 62.7931L125.175 63.6627L119.825 70.0132L116.162 72.2793L115.754 79.249C115.754 79.249 109.561 83.2016 109.166 83.3202C108.77 83.4387 104.975 85.3491 104.975 85.3491L109.363 74.6509L111.102 68.8669L118.587 65.9684L119.601 61.3439L121.222 60.4743Z" fill="#4C5621"/>
<path d="M121.354 55.0066C119.759 55.3783 118.211 55.9308 116.742 56.6535C112.631 58.7088 109.034 62.1212 104.488 62.7404C103.297 62.7642 102.12 62.9961 101.009 63.4255C99.6788 64.3265 98.6975 65.6566 98.2292 67.1937C97.7093 68.2386 97.358 69.3591 97.1882 70.5138C97.2213 72.567 97.8482 74.5668 98.9934 76.2714L102.063 76.8906C102.801 78.5902 103.605 80.2503 104.462 81.884C104.705 82.2845 104.853 82.7351 104.896 83.2016C104.879 83.6168 104.766 84.0225 104.567 84.3873C104.052 86.0113 103.026 87.4254 101.642 88.4189C100.863 88.7884 100.039 89.0541 99.191 89.2095C97.9962 89.5229 96.8387 89.9646 95.7388 90.527C94.9904 90.981 94.1836 91.3312 93.3408 91.5678C91.2721 91.9894 89.3088 90.6719 87.6091 89.4203C87.2952 89.2237 87.0403 88.946 86.8712 88.6166C86.8055 88.3349 86.8055 88.0419 86.8712 87.7602C87.3324 82.2925 89.0058 76.8247 88.1888 71.3834L91.6278 70.5929C92.1812 68.7615 92.7215 66.9301 93.2617 65.0856C93.3583 64.6719 93.5375 64.282 93.7888 63.9394C94.0989 63.637 94.4662 63.3996 94.8692 63.2411C98.2292 61.7128 101.747 60.1581 105.41 60.2898C106.912 60.2898 108.612 60.6192 109.706 59.6047C110.141 59.2095 110.43 58.6298 110.944 58.2872C111.458 57.9446 112.17 58.05 112.657 57.6811C112.95 57.3572 113.214 57.009 113.448 56.6403C114.045 56.106 114.78 55.75 115.569 55.6126C117.585 55.0235 119.438 53.9775 120.985 52.556C121.42 53.5646 121.712 54.6288 121.854 55.718C121.749 55.3623 121.657 55.0197 121.551 54.6772L121.354 55.0066Z" fill="#AE9F60"/>
<path d="M81.9301 72.78C80.9931 78.3742 79.2581 83.8051 76.7781 88.9065C76.3844 89.8357 75.8164 90.681 75.1047 91.3966C74.6093 91.8023 74.0701 92.1514 73.4972 92.4374L68.0818 95.336C68.0818 95.9816 68.0818 96.6535 68.0818 97.2464V96.1792C70.6823 99.9627 72.4475 104.256 73.2601 108.775C79.7321 107.491 85.7635 104.559 90.7713 100.264C91.2029 99.9265 91.5767 99.5216 91.8782 99.0646C92.1811 98.4636 92.3689 97.8111 92.4316 97.141C92.6687 95.6785 92.9059 94.2161 93.1299 92.7405C93.2193 92.471 93.2193 92.1799 93.1299 91.9104C92.9796 91.6646 92.7528 91.4749 92.4843 91.3702L87.2138 88.643C86.9196 88.5266 86.6672 88.3246 86.4891 88.0632C86.3379 87.6824 86.3379 87.2583 86.4891 86.8775C87.8034 81.8012 88.3366 76.5544 88.0702 71.3175C85.993 71.2916 83.9375 71.7423 82.0618 72.6351L81.9301 72.78Z" fill="#4C5621"/>
<path d="M25.9441 66.6403L27.8942 66.7984C28.0989 66.8 28.301 66.8449 28.4871 66.9302C28.6546 67.0181 28.8026 67.1391 28.9219 67.2859C30.2395 68.6034 31.4518 69.921 32.7035 71.2385C32.0686 69.8677 31.5699 68.4379 31.2146 66.9697C31.1754 66.7378 31.0951 66.5147 30.9774 66.3109C30.762 66.048 30.4798 65.8478 30.1605 65.7312C28.5464 64.9881 26.8085 64.5503 25.0349 64.4401C25.273 65.1816 25.5865 65.8968 25.9704 66.5744L25.9441 66.6403Z" fill="#283308"/>
<path d="M77.292 89.3412L82.6679 78.8011C83.0896 77.971 83.9065 76.9829 84.7498 77.3781C84.9716 77.526 85.1584 77.7205 85.2972 77.9481C85.4361 78.1757 85.5235 78.4308 85.5536 78.6957C86.3067 81.69 86.7483 84.7541 86.8712 87.8393C87.8627 82.5689 88.2517 77.2028 88.0307 71.8445L83.0764 72.4638C82.9033 72.47 82.7332 72.5103 82.5757 72.5824C82.3105 72.7995 82.1404 73.1114 82.1014 73.4519C80.6708 79.3299 78.7717 85.0839 76.4224 90.6588C76.4224 90.7905 76.2774 90.9486 76.1325 90.9486C75.9876 90.9486 75.9876 90.6456 76.1325 90.6983L77.292 89.3412Z" fill="#283308"/>
<path d="M34.1134 73.2806L40.5039 78.5507C41.2334 79.1111 41.8886 79.7619 42.454 80.4875C42.9413 81.1963 43.3313 81.9674 43.6135 82.78C44.1142 84.0975 44.5754 85.336 45.0102 86.6403C45.3659 85.8761 45.7217 85.112 46.0643 84.3478C46.223 84.0402 46.3383 83.7121 46.4069 83.3728C46.3986 82.4555 46.0349 81.577 45.3923 80.9223C48.0276 78.7615 50.5838 76.5086 53.0609 74.1634C49.9249 76.2714 46.0511 76.8775 42.3091 77.4308C41.6968 77.5626 41.0635 77.5626 40.4512 77.4308C39.9113 77.2398 39.4143 76.9443 38.9886 76.5613L34.3769 72.9644L34.1134 73.2806Z" fill="#4C5621"/>
<path d="M46.9866 88.0105C49.8904 92.1749 52.2546 96.6904 54.0227 101.449L53.5484 92.5296C53.5492 92.2128 53.4723 91.9007 53.3244 91.6205C53.1674 91.4437 52.98 91.2964 52.771 91.1857L47.0261 87.8524L47.7244 88.6166L46.9866 88.0105Z" fill="#4C5621"/>
<path d="M65.697 73.307L71.3101 88.5375C69.4259 89.2095 67.1596 89.8551 65.5784 88.6166C63.7864 87.2991 63.681 84.0711 61.5201 83.4255C60.5055 83.1093 59.3592 83.531 58.3842 83.1489C61.7763 80.6002 64.3204 77.0875 65.6838 73.0698C65.6838 72.9644 65.776 72.8458 65.8815 72.8722C65.9869 72.8985 65.8815 73.083 65.8815 72.9776L65.697 73.307Z" fill="#283308"/>
<path d="M62.2448 83.3465C63.984 85.3096 65.6442 87.3649 67.2122 89.473C65.9103 89.9254 64.5222 90.0741 63.1539 89.9077C63.04 89.9068 62.9294 89.8699 62.8377 89.8023C62.781 89.7409 62.7386 89.6677 62.7136 89.588C62.6885 89.5083 62.6814 89.424 62.6928 89.3412C62.616 87.3217 62.4003 85.31 62.0471 83.3201L62.2448 83.3465Z" fill="#4C5621"/>
<path d="M51.2689 66.5481L49.2529 70.8827L53.443 74.5059L54.4576 71.0277L54.8924 69.0119L51.2689 66.5481Z" fill="#4C5621"/>
<path d="M38.1058 111.673L43.0338 106.179L55.1823 111.673L56.9084 117.167L48.0935 115.428L38.1058 111.673Z" fill="#4C5621"/>
<path d="M51.2689 65.8234L42.454 65.6785L34.2056 63.7944L30.9774 66.245L32.7562 70.3162L39.7001 72.0421L45.0497 71.3175L49.2529 70.8827L51.2689 65.8234Z" fill="#AE9F60"/>
<path d="M24.5605 86.4427C25.4033 87.3005 26.4884 87.8798 27.6702 88.1028C29.7784 88.3136 31.623 86.311 33.6917 86.3768C32.3346 89.2163 30.8214 91.9786 29.1591 94.6509L24.6133 86.6272L24.5605 86.4427Z" fill="#283308"/>
<path d="M108.401 63.2411L111.155 68.8801C111.155 68.8801 118.955 66.2451 118.521 65.9816C118.086 65.7181 119.535 61.3571 119.535 61.3571L117.374 57.0224C117.374 57.0224 109.271 60.3294 108.401 63.2411Z" fill="#AE9F60"/>
<path d="M120.985 51.3834L126.967 56.3768L131.855 51.726C131.178 50.0807 129.941 48.7276 128.363 47.9051C125.728 46.5876 125.609 46.166 125.609 46.166C124.752 48.4086 123.108 50.2629 120.985 51.3834V51.3834Z" fill="#4C5621"/>
<path d="M74.4064 64.9539L91.6278 63.3729L90.3102 69.4466L72.6804 71.6074L70.7961 67.4177C71.8557 67.3039 72.8771 66.9575 73.7872 66.4032C73.998 66.2281 74.1642 66.0054 74.2719 65.7533C74.3796 65.5013 74.4257 65.2273 74.4064 64.9539V64.9539Z" fill="#AE9F60"/>
<path d="M71.2179 65.3755C70.6381 64.058 69.9002 64.4401 68.8593 63.61C68.6575 63.4166 68.4262 63.2565 68.1741 63.1357C67.9237 63.0698 67.6604 63.0698 67.4099 63.1357C66.3822 63.386 64.6429 64.6245 64.7747 65.8762C64.8129 66.094 64.9054 66.2987 65.0435 66.4714C65.1817 66.644 65.3611 66.7792 65.5652 66.8643C67.1727 67.7207 69.1228 67.2332 70.8357 66.7326C70.967 66.7017 71.0918 66.6482 71.2047 66.5745C71.5077 66.2978 71.3891 65.7708 71.2179 65.3755Z" fill="#AE9F60"/>
<path d="M98.216 68.5112C98.7562 66.7457 99.415 64.7958 101.036 63.8999C101.544 63.6192 102.084 63.3981 102.643 63.2411L106.214 62.2661C106.493 62.1425 106.797 62.0864 107.101 62.1024C107.406 62.1184 107.702 62.2061 107.966 62.3584C108.156 62.5503 108.304 62.779 108.401 63.0303L110.878 68.3004C110.999 68.5134 111.062 68.7539 111.063 68.9987C111.04 69.1795 110.982 69.354 110.892 69.5125L109.363 72.4638L98.0974 68.3531L98.216 68.5112Z" fill="#4C5621"/>
<path d="M72.733 71.9631L77.2525 77.3781C77.5182 77.6667 77.7361 77.9959 77.8981 78.3531C78.0262 78.7799 78.0797 79.2256 78.0562 79.6706C78.0562 81.7128 78.0562 83.755 78.0562 85.7971C79.9781 81.59 81.3849 77.1662 82.2463 72.6219C79.3254 72.6636 76.4065 72.4475 73.5236 71.9763C73.1115 71.8925 72.6923 71.8484 72.2719 71.8445L72.733 71.9631Z" fill="#4C5621"/>
<path d="M75.3551 91.6074C77.8191 95.3755 79.8219 99.5125 82.075 103.32C84.5434 102.451 86.7919 101.052 88.6631 99.2227C88.7817 99.1173 88.9135 98.9724 88.8608 98.8274C88.8081 98.6825 88.7159 98.6561 88.6236 98.6034C84.0796 96.3766 79.679 93.8684 75.4473 91.0936L75.3551 91.6074Z" fill="#283308"/>
<path d="M15.5612 71.3307C17.8802 70.6719 20.2168 70.0746 22.5709 69.5388C22.7607 69.4867 22.961 69.4867 23.1507 69.5388C23.3328 69.6087 23.4923 69.7272 23.6119 69.8814C25.0876 71.4492 26.537 73.0171 27.9732 74.6113C26.8105 71.4147 25.9976 68.1016 25.5488 64.7299C23.831 64.5248 22.1503 64.0814 20.555 63.4124C19.2755 66.3041 17.5943 69.0009 15.5612 71.4229V71.3307Z" fill="#283308"/>
<path d="M7.39186 64.9539L7.74762 55.7971C7.80754 55.1385 7.75406 54.4745 7.5895 53.834C7.42974 53.3673 7.20817 52.9242 6.93069 52.5164C4.93836 49.4052 2.69534 46.4617 0.223959 43.7154C-0.0126414 44.5778 -0.0126414 45.488 0.223959 46.3504C1.10238 50.9881 1.9808 55.617 2.85922 60.2371C2.91391 60.6421 3.03876 61.0344 3.22815 61.3966C3.49594 61.7786 3.83076 62.1089 4.21637 62.3715C5.52075 63.4386 6.64229 64.7114 7.5368 66.1396L7.39186 64.9539Z" fill="#AE9F60"/>
<path d="M125.768 45.8498C127.417 46.4081 128.915 47.3417 130.142 48.577C130.067 45.9654 129.532 43.3874 128.561 40.9618C127.743 39.3634 126.744 37.8647 125.583 36.4954C125.504 37.4967 125.412 38.5112 125.333 39.5125C125.293 39.6859 125.293 39.8661 125.333 40.0395C125.407 40.2483 125.513 40.444 125.649 40.6192C125.92 41.0618 126.039 41.5812 125.986 42.0976C125.934 42.6141 125.714 43.0991 125.359 43.4782C125.706 43.8555 125.951 44.3141 126.073 44.8116C126.195 45.3091 126.19 45.8293 126.057 46.3241H125.609L125.768 45.8498Z" fill="#C2AE8D"/>
<path d="M30.4899 79.5389L35.2597 77.6021L32.7562 70.303L28.4871 66.9302L25.9441 66.6403C25.9441 66.6403 28.3949 75.9684 30.4899 79.5389Z" fill="#AE9F60"/>
<path d="M25.3907 82.4111C25.0877 83.8208 24.7978 85.2306 24.4948 86.6403C24.4685 86.7441 24.4685 86.8527 24.4948 86.9565C24.5545 87.0426 24.6365 87.1109 24.7319 87.1541C25.4145 87.5894 26.1616 87.914 26.9455 88.1159C29.4359 88.6298 31.7812 86.614 34.3243 86.4954L30.3714 83.8603C30.5683 82.7767 30.9951 81.7479 31.6231 80.8432C29.579 81.5597 27.4626 82.0501 25.3117 82.3057L25.3907 82.4111Z" fill="#AE9F60"/>
<path d="M123.554 33.3202C123.028 33.0387 122.529 32.7078 122.065 32.332C120.418 30.8959 119.746 29.697 117.651 28.7747C115.97 28.2079 114.354 27.466 112.829 26.5613C110.035 24.6509 107.914 22.332 104.462 21.6601C100.43 20.8827 92.827 21.8182 91.6279 21.0408C88.6623 18.83 85.0005 17.7592 81.3109 18.0237C80.125 18.0237 77.9641 18.8933 76.8705 18.5507C70.559 16.614 63.1145 13.9921 56.4341 15.2833C53.7988 15.7971 42.006 16.7721 42.1115 20.3821C35.4047 23.9921 27.2091 21.9499 19.8699 23.7154C13.9142 25.2042 8.77546 29.1831 4.61175 33.8604C2.98045 35.4316 1.83675 37.4397 1.31768 39.6443C0.632517 43.9131 3.95294 47.5494 6.8649 50.6983C9.51703 53.8302 12.3411 56.8124 15.3241 59.6311C18.2963 62.435 22.0863 64.2168 26.1418 64.7167C29.0933 64.9144 31.9921 64.1239 34.9172 64.0448C37.5007 64.0679 40.0522 64.6194 42.4145 65.6654L52.6657 66.1265C61.6782 66.5217 71.376 65.2306 80.4676 64.2556L96.3582 62.5428C100.311 62.1212 105.147 59.4862 109.007 58.0896C112.868 56.693 115.925 55.0593 119.443 53.386C120.168 53.0435 120.563 52.0685 120.972 51.6469C122.197 50.1976 123.923 48.9328 125.043 47.3518C126.545 45.2306 126.466 42.3715 126.361 39.7365C126.255 37.6943 126.058 35.4282 124.595 34.0712C124.274 33.7867 123.925 33.5351 123.554 33.3202Z" fill="#82993F"/>
<path d="M120.734 33.6627C120.237 33.3942 119.765 33.0811 119.324 32.7273C117.756 31.4098 117.111 30.1581 115.121 29.3281C113.518 28.7913 111.976 28.0846 110.523 27.22C107.887 25.4018 105.832 23.1884 102.538 22.556C98.7035 21.8182 91.4566 22.7009 90.3234 21.9631C87.4936 19.8544 84.0013 18.8307 80.4807 19.0777C79.3608 19.0777 77.3053 19.9078 76.2512 19.5916C70.2428 17.747 63.1408 15.2437 56.7898 16.4822C54.2468 16.9697 43.0338 17.892 43.1392 21.3307C36.7487 24.7694 28.9878 22.8327 21.9517 24.5586C16.2727 25.9684 11.4107 29.8287 7.45779 34.2293C6.16651 35.5731 4.46677 37.5626 5.66581 39.2358C6.15298 39.7761 6.7798 40.1714 7.47724 40.3783C8.17469 40.5852 8.91571 40.5956 9.6187 40.4084L6.00839 42.0422C5.74487 42.1476 5.44181 42.332 5.44181 42.6219C5.44181 42.9117 5.88981 43.1225 6.23239 43.1752L7.90578 43.4783C7.1152 43.3465 6.73309 44.5323 7.10203 45.2569C7.45838 45.8326 7.97616 46.2908 8.59095 46.5744C9.72923 47.1904 10.9884 47.5501 12.2803 47.6285C11.4012 47.9093 10.6259 48.446 10.0535 49.17C8.64365 51.3966 15.996 57.3913 17.6167 58.7879C20.1465 60.9881 22.0966 62.2793 25.5225 61.9104C25.5914 61.9908 25.6395 62.087 25.6624 62.1904C25.6854 62.2938 25.6826 62.4012 25.6542 62.5033C26.5818 62.2159 27.4677 61.8084 28.2895 61.2912C28.383 61.3912 28.4351 61.5231 28.4351 61.6601C28.4351 61.7971 28.383 61.9289 28.2895 62.029C29.2777 62.029 30.0288 61.1858 30.5953 60.3689L33.4809 56.3109C32.5191 58.3136 31.544 60.2635 30.5822 62.332L32.9802 61.0145C33.1515 61.3966 33.3228 61.7787 33.4809 62.1739C33.5054 62.0303 33.5608 61.8938 33.6434 61.7739C33.7261 61.6539 33.8339 61.5534 33.9593 61.4794C34.0848 61.4054 34.2248 61.3597 34.3698 61.3453C34.5147 61.331 34.6611 61.3485 34.7986 61.3966C35.028 61.5161 35.2335 61.6769 35.4047 61.8709C37.6842 63.9921 42.1641 64.3215 45.2474 64.5586C47.8826 64.7563 50.5179 64.7958 53.2322 64.9144C61.8231 65.3096 71.0597 64.0711 79.7165 63.1357L94.8692 61.5151C95.8311 61.4097 103.829 59.1304 101.84 58.0369C102.468 57.8534 103.112 57.7298 103.763 57.668C102.417 55.7846 100.851 54.0684 99.0988 52.556C101.12 54.1218 103.458 55.2278 105.951 55.7971C106.286 55.8959 106.643 55.8959 106.978 55.7971C107.058 55.7677 107.131 55.723 107.193 55.6654C107.256 55.6077 107.306 55.5384 107.341 55.4613C107.377 55.3842 107.397 55.3009 107.4 55.2161C107.403 55.1313 107.39 55.0466 107.36 54.9671C107.644 55.0414 107.942 55.0416 108.226 54.9678C108.51 54.894 108.77 54.7486 108.981 54.5455C109.131 54.3462 109.325 54.1839 109.548 54.0712C109.903 53.9526 110.246 54.2292 110.602 54.361C110.895 54.4711 111.218 54.4733 111.512 54.3671C111.807 54.2608 112.054 54.0532 112.209 53.7813C112.274 53.6409 112.306 53.4875 112.302 53.3329C112.299 53.1782 112.26 53.0265 112.189 52.8892C112.118 52.7519 112.016 52.6327 111.892 52.5407C111.767 52.4487 111.623 52.3863 111.471 52.3584C116.492 52.8063 119.377 51.0408 122.197 47.0883C123.62 45.0725 123.514 42.332 123.435 39.8287C123.33 37.892 123.146 35.7181 121.736 34.4269C121.43 34.1376 121.094 33.8815 120.734 33.6627V33.6627Z" fill="#617E36"/>
<path d="M70.6908 132.358L76.1853 125.942C78.5833 123.123 81.1395 119.934 81.0078 116.232C80.8762 115.41 80.9256 114.569 81.1527 113.768C81.4652 113.187 81.9181 112.693 82.4703 112.332L90.5211 105.837C90.6001 107.246 90.666 108.656 90.7451 110.066C90.7191 110.532 90.8439 110.994 91.1008 111.383C91.3513 111.618 91.6356 111.813 91.9441 111.963C93.578 112.978 93.9074 115.178 94.0787 117.101C94.1721 117.678 94.1315 118.269 93.9601 118.827C93.7386 119.305 93.4147 119.728 93.0114 120.066C86.8286 126.013 79.0432 130.024 70.6117 131.607L71.9293 132.345L70.6908 132.358Z" fill="#AE9F60"/>
<path d="M94.4608 99.6969L100.706 102.872C100.932 103.012 101.192 103.085 101.457 103.083C101.721 103.03 101.964 102.902 102.156 102.714L105.595 99.8682C105.787 99.7225 105.952 99.5441 106.082 99.3412C106.206 99.0505 106.251 98.7326 106.214 98.4189C106.214 93.5968 108.111 88.8933 107.743 84.0975L105.107 84.9275C104.824 84.9942 104.561 85.13 104.343 85.3228C103.974 85.7049 104.014 86.2977 103.882 86.7984C103.539 88.0105 102.235 88.6297 101.062 89.0514C99.248 89.7117 97.3955 90.2617 95.5149 90.6983C95.4471 93.9354 95.0542 97.1576 94.3422 100.316L94.2632 99.2622L94.4608 99.6969Z" fill="#4C5621"/>
<path d="M66.7906 121.383C68.267 124.791 69.4527 128.317 70.335 131.924C74.0262 128.33 77.3256 124.356 80.1777 120.066C76.6947 119.631 73.256 118.895 69.9002 117.866C69.5036 117.705 69.0698 117.659 68.6484 117.734C68.3883 117.834 68.1542 117.992 67.9633 118.195C67.4218 118.639 67.0193 119.229 66.8038 119.895C66.6991 120.23 66.6931 120.588 66.7865 120.927C66.88 121.266 67.0689 121.571 67.3308 121.805L66.7906 121.383Z" fill="#4C5621"/>
<path d="M52.7051 116.509C54.1809 121.287 55.6522 126.069 57.1192 130.856C55.6449 128.806 54.4692 126.557 53.6275 124.177C52.4855 121.322 51.3304 118.472 50.1621 115.626C51.2794 115.698 52.3676 116.012 53.3508 116.548L52.7051 116.509Z" fill="#AE9F60"/>
<path d="M57.4749 36.2846C59.5041 40.2372 50.6628 42.3715 48.884 44.6113C48.4057 45.2365 48.032 45.9351 47.7772 46.6798C47.1465 48.2249 47.1183 49.9503 47.6981 51.5152C49.2793 55.2569 56.5921 56.5086 59.8994 57.8524C65.7496 60.224 71.5867 62.78 77.8323 63.8999C79.8257 64.0219 81.8265 63.8936 83.788 63.5178C86.2388 63.3202 88.6632 62.9908 91.1008 62.6746C95.2381 62.1344 99.4414 62.3188 102.709 59.5389C100.074 58.5771 97.3595 57.8261 94.6979 56.9038C92.0363 55.9816 89.4274 54.5059 86.7922 53.8472C83.643 52.4638 79.0577 50.8037 77.1076 47.892C76.6961 47.355 76.3756 46.7541 76.1589 46.1133C75.2366 42.5824 81.1922 40.7115 78.3989 36.8907C76.2248 33.9658 70.9016 32.7536 67.6865 31.3307C63.2945 29.372 58.8497 27.4791 54.3521 25.6522C51.6247 24.5323 48.9103 23.1225 46.1697 22.1871C45.5504 21.9763 41.0836 21.0277 42.5726 19.7233C38.8041 23.0435 34.8513 21.8314 30.5558 23.1752C32.3214 22.6219 34.2056 24.2161 35.7209 24.8353C37.6973 25.6522 39.7397 26.3505 41.7029 27.2332C46.196 29.2358 50.5179 31.6601 54.8792 33.9921C55.9524 34.4823 56.8559 35.2802 57.4749 36.2846V36.2846Z" fill="#A7A131"/>
<path d="M91.7992 57.0751C89.1639 56.166 86.5286 54.6772 83.8934 54.0185C80.7574 52.7009 76.1589 50.975 74.222 48.0764C73.8133 47.535 73.4972 46.9295 73.2865 46.2846C72.3773 42.7537 78.3198 40.8828 75.5264 37.0619C73.3392 34.2556 68.0028 32.9381 64.7878 31.6206C60.3957 29.6619 55.9509 27.769 51.4534 25.9421C48.7522 24.7695 46.0116 23.3465 43.2709 22.3979C42.3791 22.1709 41.4995 21.8983 40.6356 21.5811C40.3586 21.9308 39.9818 22.1882 39.5552 22.3189C34.1002 24.0316 27.9996 22.8327 22.426 24.2952C25.8826 23.5258 29.4893 23.7916 32.7958 25.0593C34.7854 25.863 36.8145 26.5613 38.791 27.444C43.2709 29.4598 47.5927 31.8709 51.9014 34.2161C52.9823 34.6723 53.9006 35.4437 54.5366 36.4295C56.5658 40.3821 47.7245 42.5165 45.9457 44.7563C45.4674 45.3815 45.0937 46.08 44.8389 46.8248C44.224 48.38 44.2099 50.1083 44.7994 51.6733C46.3805 55.415 53.6933 56.6535 57.0138 57.971C62.8509 60.3426 68.688 62.8986 74.9335 64.0185C76.9313 64.1401 78.9364 64.0118 80.9024 63.6364C83.34 63.4388 85.7644 63.1226 88.202 62.7932C92.3394 62.2662 96.5558 62.4374 99.8235 59.6575C97.1883 58.7352 94.4608 57.971 91.7992 57.0751Z" fill="#857A2E"/>
<path d="M56.1837 36.8906C58.2129 40.8432 49.3716 42.9776 47.5928 45.2174C47.1145 45.8426 46.7407 46.5411 46.486 47.2859C45.8616 48.8322 45.8335 50.5553 46.4069 52.1212C47.9881 55.863 55.3009 57.1014 58.6213 58.4585C64.4584 60.83 70.2955 63.386 76.5411 64.5059C78.5388 64.621 80.5432 64.4927 82.5099 64.1238C84.9475 63.913 87.3852 63.5968 89.8096 63.2806C93.9469 62.7404 98.1634 62.9249 101.431 60.1449C98.7958 59.1831 96.0683 58.4321 93.4199 57.5099C90.7715 56.5876 88.1494 55.1251 85.5141 54.4664C82.3782 53.1489 77.7796 51.4229 75.8427 48.5112C75.4288 47.973 75.1122 47.3666 74.9072 46.7193C73.998 43.1884 79.9406 41.3175 77.1472 37.4967C74.9863 34.5586 69.6499 33.3597 66.4349 31.9367C62.0428 29.9692 57.598 28.0764 53.1005 26.2582C50.7946 25.3096 48.4624 23.834 46.038 23.3201C43.7984 22.9557 41.5343 22.7619 39.2654 22.7404C38.6641 22.7075 38.0615 22.7075 37.4602 22.7404C36.4061 22.8195 34.5219 22.7404 34.1398 24.058C33.5073 26.1792 39.0941 27.2595 40.4644 27.8656C44.9575 29.8814 49.2662 32.2925 53.6407 34.6377C54.6892 35.1258 55.5728 35.9087 56.1837 36.8906V36.8906Z" fill="#E6CC46"/>
<path d="M56.658 39.2754C53.3903 42.4901 52.7051 48.2345 55.6698 51.7523C57.1667 53.3202 58.9576 54.5782 60.9403 55.4546C64.3529 57.2464 67.7656 59.1963 71.3232 60.7247C73.1393 61.4882 75.0007 62.1394 76.8967 62.6746C78.0431 63.004 81.1659 64.3215 82.2858 63.8999C79.9032 64.7936 77.3856 65.2748 74.8412 65.3228C74.594 64.8849 74.2533 64.5067 73.8434 64.2153C73.4335 63.9238 72.9644 63.7262 72.4695 63.6364L53.7592 57.4309C50.2279 56.2583 44.2196 52.78 45.6953 48.2082C46.383 46.1435 47.8482 44.4279 49.78 43.4256C51.9176 42.3794 53.9628 41.1541 55.8937 39.7629C56.0782 39.6179 56.1177 39.3017 56.3286 39.1963C56.5394 39.0909 56.5526 39.6311 56.4208 39.4335L56.658 39.2754Z" fill="#C7B348"/>
<path d="M20.5945 26.6666C17.8539 27.5889 15.9697 29.3017 13.7165 30.9486C11.0813 32.8458 8.24837 34.2424 5.81075 36.3373C5.02018 36.996 4.03195 37.8524 5.08606 38.8669C5.56503 39.2408 6.14123 39.4694 6.74627 39.5257C11.9821 40.267 17.2785 40.4877 22.5578 40.1844C22.3338 40.8695 22.123 41.5678 21.899 42.2529C25.4372 42.188 28.972 42.5105 32.44 43.2147C32.7886 43.253 33.116 43.4006 33.3755 43.6363C33.8894 44.2424 33.3755 45.1251 33.2833 45.9025C33.308 46.3615 33.4523 46.806 33.7019 47.192C33.9516 47.578 34.2978 47.892 34.7063 48.1027C36.327 49.1172 44.6017 50.6587 44.918 52.1871C44.5308 50.6332 44.3885 49.0285 44.4963 47.4308C45.0102 43.083 49.5165 42.7404 52.5602 40.6192C53.5616 39.9209 55.0505 38.3136 54.8529 36.9433C54.6552 35.5731 53.7724 35.6258 52.6788 35.0461C49.4638 33.4914 46.2488 31.9104 43.0996 30.2371C39.4225 28.2763 35.4613 26.9027 31.3596 26.166C27.9051 25.4935 24.3415 25.6334 20.9503 26.5744L20.5945 26.6666Z" fill="#577231"/>
<path d="M19.9093 20.0527C18.7132 20.5643 17.7245 21.4641 17.1029 22.6068C16.4813 23.7495 16.2631 25.0684 16.4835 26.3504C16.7078 29.9485 16.4149 33.5601 15.6139 37.0751C15.5667 37.2221 15.5494 37.3772 15.563 37.531C15.5765 37.6849 15.6207 37.8345 15.6929 37.971C15.8186 38.1063 15.9776 38.2063 16.1541 38.2608C17.0284 38.6295 17.9443 38.8905 18.8816 39.0382C20.145 39.1626 21.4205 39.0645 22.65 38.7483C24.606 38.5946 26.5738 38.7054 28.5003 39.0777L40.5697 40.606C42.9942 40.9091 45.5504 41.1989 47.764 40.1844C55.2745 36.7589 47.4741 29.4334 44.0878 26.6271C40.1447 23.2492 35.5204 20.7597 30.5294 19.328C27.1425 18.322 23.51 18.5365 20.2651 19.9341L19.9093 20.0527Z" fill="#3A5220"/>
<path d="M19.2637 19.0777C16.1673 20.6719 13.8746 23.5178 11.7137 26.2582C10.3796 27.7571 9.18032 29.3707 8.12978 31.0804C7.25157 32.9342 6.48596 34.8393 5.8371 36.7852C5.73641 36.9993 5.6868 37.2338 5.69217 37.4704C5.74649 37.7805 5.91008 38.0609 6.15334 38.2609C7.5632 39.5784 9.69776 39.4335 11.5951 39.249C16.6775 38.7328 21.7846 38.4997 26.8928 38.5507C31.0829 38.5507 35.4969 39.3412 39.6474 38.722C42.575 38.4029 45.4491 37.7076 48.1989 36.6535C54.0228 34.1238 45.9721 27.668 43.4817 25.5995C39.5327 22.2199 34.9048 19.7264 29.9102 18.2872C26.5218 17.2854 22.8892 17.5045 19.6458 18.9064L19.2637 19.0777Z" fill="#82993F"/>
<path d="M18.684 24.9407C18.2951 24.8123 17.9365 24.6061 17.6299 24.3347C14.7706 21.7655 19.0397 19.697 20.9371 18.9723C25.9309 17.0488 33.7445 18.1686 36.7487 23.2148C37.0115 23.6028 37.1452 24.0638 37.1308 24.5323C37.042 24.9296 36.8428 25.2938 36.556 25.5828C36.2693 25.8719 35.9067 26.074 35.5101 26.166C33.7972 26.693 32.4268 26.0079 30.793 25.5731C29.7784 25.3096 28.7638 25.0329 27.7229 24.8617C26.1119 24.611 24.4719 24.611 22.8609 24.8617C21.9909 25.0337 21.1106 25.1481 20.2256 25.2042C19.701 25.1992 19.1805 25.1103 18.684 24.9407V24.9407Z" fill="#9EAF60"/>
<path opacity="0.38" d="M43.4818 25.5995C39.5327 22.2199 34.9048 19.7264 29.9102 18.2872C28.0354 17.7817 26.0889 17.5946 24.1521 17.7338C25.684 19.0891 26.941 20.7262 27.8547 22.556C28.5056 23.7502 28.8311 25.0945 28.7987 26.4542C28.7664 27.8138 28.3772 29.1411 27.6702 30.303C27.0299 31.1168 26.2857 31.8432 25.4566 32.4637C22.8213 34.6245 20.0543 36.8247 17.1951 38.7879C20.4101 38.5902 23.6251 38.4848 26.8533 38.5244C31.0433 38.5244 35.4574 39.3149 39.6079 38.6956C42.5355 38.3765 45.4096 37.6813 48.1593 36.6271C54.0228 34.1238 45.9721 27.668 43.4818 25.5995Z" fill="#63782D"/>
<path d="M82.3782 32.1607C86.9108 33.7286 92.0496 34.0975 96.8721 34.4664C101.695 34.8353 106.86 33.2411 111.366 31.6601C111.499 31.5785 111.601 31.4556 111.657 31.3104C111.713 31.1651 111.72 31.0054 111.677 30.8558C111.633 30.7062 111.542 30.575 111.417 30.4822C111.292 30.3895 111.14 30.3404 110.984 30.3425C106.069 31.5678 101.576 34.0448 96.3582 33.7286C91.6806 33.4519 87.1348 32.7009 82.4309 32.1475C82.4309 32.1475 82.4309 32.1475 82.4309 32.2134L82.3782 32.1607Z" fill="#577231"/>
<path d="M116.979 32.6877C111.484 29.5739 105.283 27.9226 98.967 27.892C93.0772 27.668 85.4877 27.668 80.0195 30.0527C79.6506 30.2108 79.2421 30.4479 79.2026 30.8432C79.1631 31.2385 79.7428 31.6337 80.2303 31.7786C88.7027 34.4137 97.3595 36.5613 105.898 38.9987C109.679 40.079 113.948 41.0277 117.374 39.1041C117.995 38.8187 118.526 38.3701 118.911 37.8062C119.297 37.2423 119.521 36.5842 119.562 35.9025C119.416 35.2006 119.106 34.5433 118.657 33.9844C118.208 33.4256 117.633 32.9812 116.979 32.6877Z" fill="#577231"/>
<path d="M81.7852 31.9104C80.9468 31.5179 80.1556 31.0317 79.4266 30.4611C81.2318 27.1015 81.5744 22.8195 82.3913 19.1436C82.8525 17.0751 83.9066 14.5982 86.0148 14.5323C88.123 14.4664 89.6778 17.1673 91.8782 17.2596C94.0787 17.3518 95.4622 14.6245 95.8311 12.3847C96.5163 8.72201 96.6612 4.83532 98.5454 1.62056C98.787 1.13429 99.1677 0.730747 99.6391 0.461145C101.036 -0.210792 102.432 1.34388 103.157 2.71411C107.413 10.7905 109.416 19.8419 111.366 28.7352C111.449 28.9656 111.484 29.2103 111.471 29.4547C111.457 29.6991 111.394 29.9383 111.287 30.1581C111.023 30.4684 110.66 30.6778 110.259 30.751C104.844 32.477 99.2174 34.2556 93.4067 34.1634C89.4216 34.1923 85.4707 33.4264 81.7852 31.9104V31.9104Z" fill="#82993F"/>
<path d="M88.3866 15.8103C90.4684 17.5494 94.1578 18.4453 95.5545 15.3887C96.4109 13.4914 96.2923 11.0145 96.6744 9.01185C96.9205 7.67963 97.2328 6.36048 97.61 5.05929C98.1107 3.33333 99.0594 -0.105405 101.563 1.62055C102.157 2.10476 102.658 2.6943 103.039 3.35968L104.752 5.99473C103.434 3.99209 101.036 -3.34651 97.8076 2.04216C96.49 4.2556 96.121 7.31225 95.7389 9.85507C95.5545 11.0277 95.4886 12.2134 95.3568 13.3992C95.3378 14.2056 95.1398 14.9976 94.7771 15.718C93.2486 18.0105 90.1654 16.8906 88.4524 15.8103C88.3866 15.6917 88.3602 15.7312 88.3866 15.8103Z" fill="#577231"/>
<path d="M102.999 2.63505C103.987 7.29908 106.148 11.7523 107.492 16.3241C108.836 20.8959 109.482 25.7312 110.496 30.448C110.747 31.6206 112.433 31.1067 112.249 29.9736C111.308 25.0478 109.986 20.2023 108.296 15.4809C106.978 11.1594 105.582 6.36364 103.025 2.59552L102.999 2.63505Z" fill="#577231"/>
<path opacity="0.38" d="M97.5044 4.55861C97.5673 4.44732 97.654 4.35126 97.7582 4.27727C97.8625 4.20327 97.9817 4.15317 98.1075 4.13053C98.2334 4.10788 98.3626 4.11325 98.4861 4.14625C98.6096 4.17925 98.7243 4.23908 98.8221 4.32146C99.2082 4.67004 99.4754 5.13077 99.5863 5.63898C101.642 11.5406 103.013 17.6589 103.671 23.8735C103.882 25.2204 103.855 26.5938 103.592 27.9315C102.749 31.2385 99.4282 33.2016 96.2659 34.5191L109.534 31.6205C109.927 31.5734 110.299 31.4234 110.615 31.1858C110.82 30.9468 110.974 30.6674 111.064 30.3655C111.155 30.0637 111.182 29.7461 111.142 29.4334C111.142 25.0461 109.653 20.8168 108.243 16.6667C106.833 12.5165 105.726 4.65084 101.984 1.72594C98.9934 -0.606078 97.5044 2.63503 97.32 5.1515L97.5044 4.55861Z" fill="#63782D"/>
<path d="M81.6929 21.7523C80.4203 21.6018 79.1364 21.92 78.0814 22.6475C77.0265 23.375 76.2727 24.4619 75.9612 25.7049C75.8674 25.97 75.8435 26.2548 75.892 26.5317C75.9405 26.8087 76.0596 27.0685 76.2379 27.2859C76.4684 27.4591 76.7336 27.5804 77.0153 27.6417C78.0694 27.9183 79.1367 28.1555 80.2172 28.3268C81.1918 26.4526 81.7195 24.3782 81.7588 22.2662L81.6929 21.7523Z" fill="#577231"/>
<path d="M68.5167 51.1067C68.4719 51.2169 68.3872 51.3063 68.2795 51.357C67.5772 51.5583 66.8265 51.507 66.1581 51.2121C65.4118 51.0042 64.681 50.7445 63.9709 50.4347C63.4831 50.2748 63.0343 50.0145 62.6533 49.6706C62.0735 49.0514 62.2184 48.3531 63.009 48.1291C63.5732 47.9391 64.1769 47.8983 64.7615 48.0105C65.3218 48.2326 65.8425 48.544 66.3031 48.9328C66.8215 49.2853 67.3187 49.668 67.792 50.079C68.0687 50.3162 68.5958 50.751 68.5167 51.1067Z" fill="#A2933A"/>
<path d="M67.8974 51.0277C67.8578 51.1262 67.7825 51.2062 67.6866 51.2516C67.1595 51.5415 66.3689 51.2516 65.8155 51.1199C65.1526 50.9383 64.5049 50.7048 63.8786 50.4216C63.4632 50.2766 63.082 50.0479 62.7586 49.7497C62.2579 49.2095 62.3765 48.6166 63.088 48.4321C63.5818 48.2528 64.1161 48.2162 64.6297 48.3267C65.1094 48.5218 65.5543 48.7932 65.9473 49.1304C66.4064 49.4467 66.8464 49.7899 67.2649 50.1581C67.568 50.3294 68.0291 50.7115 67.8974 51.0277Z" fill="#C7B348"/>
<path d="M63.1671 33.8867C63.1498 33.9599 63.1079 34.025 63.0485 34.0712C62.6502 34.3009 62.1827 34.3804 61.7309 34.2952C61.2447 34.276 60.7604 34.2231 60.2815 34.137C59.9715 34.1054 59.6712 34.0113 59.3987 33.8604C59.299 33.82 59.2136 33.7508 59.1535 33.6616C59.0934 33.5724 59.0613 33.4673 59.0613 33.3597C59.0613 33.2522 59.0934 33.147 59.1535 33.0579C59.2136 32.9687 59.299 32.8994 59.3987 32.8591C59.7117 32.6638 60.0708 32.5548 60.4396 32.5428C60.8168 32.5861 61.1829 32.6977 61.52 32.8722C61.8908 33.0102 62.2517 33.1731 62.6005 33.3597C62.8113 33.4519 63.2461 33.6496 63.1671 33.8867Z" fill="#A2933A"/>
<path d="M62.8114 33.9131C62.8082 33.9463 62.7984 33.9786 62.7826 34.008C62.7668 34.0374 62.7452 34.0634 62.7192 34.0843C62.3673 34.2829 61.9574 34.3527 61.5596 34.282C61.1174 34.2676 60.6768 34.2192 60.242 34.137C59.9672 34.1141 59.7012 34.0284 59.4646 33.8867C59.3747 33.8549 59.2968 33.7961 59.2418 33.7182C59.1867 33.6403 59.1571 33.5473 59.1571 33.4519C59.1571 33.3566 59.1867 33.2635 59.2418 33.1857C59.2968 33.1078 59.3747 33.0489 59.4646 33.0171C59.7365 32.8312 60.0576 32.7303 60.387 32.7273C60.7211 32.7714 61.0459 32.8693 61.3488 33.0171C61.6768 33.1351 61.9941 33.2805 62.2975 33.4519C62.5083 33.5442 62.8509 33.7023 62.8114 33.9131Z" fill="#C7B348"/>
<path d="M70.3351 50.5138C70.2937 50.5608 70.2382 50.5932 70.1769 50.6061C69.7841 50.5843 69.4112 50.4258 69.1228 50.1581C68.7779 49.9251 68.4518 49.6651 68.1478 49.3808C67.9354 49.2176 67.7602 49.0109 67.6339 48.7747C67.4495 48.3663 67.6339 48.0501 68.0951 48.0501C68.4114 48.0471 68.7221 48.1339 68.9911 48.3004C69.2426 48.5082 69.4566 48.7578 69.6235 49.0382C69.8274 49.3089 70.0166 49.5903 70.1901 49.8814C70.2824 50.0659 70.4668 50.3557 70.3351 50.5138Z" fill="#A2933A"/>
<path d="M70.0715 50.3821C70.0239 50.3938 69.9741 50.3938 69.9265 50.3821C69.6103 50.4479 69.2414 50.1713 68.991 50C68.6884 49.7891 68.4021 49.5557 68.1346 49.3017C67.947 49.1588 67.7901 48.9796 67.6734 48.7747C67.5153 48.4058 67.6734 48.1291 68.0819 48.1291C68.3651 48.1298 68.6428 48.2072 68.8856 48.3531C69.1038 48.5369 69.2907 48.7549 69.439 48.9987C69.621 49.2386 69.7882 49.4894 69.9397 49.7496C70.0188 49.9604 70.1901 50.2371 70.0715 50.3821Z" fill="#C7B348"/>
<path d="M73.1283 57.0356C73.1204 57.0566 73.1081 57.0757 73.0921 57.0916C73.0762 57.1075 73.0571 57.1199 73.0361 57.1278C72.7849 57.2183 72.5099 57.2183 72.2587 57.1278C71.9843 57.0554 71.7157 56.9629 71.4549 56.8511C71.281 56.7912 71.1232 56.692 70.9938 56.5613C70.7829 56.3373 70.8225 56.1001 71.1255 55.9947C71.3366 55.935 71.5601 55.935 71.7712 55.9947C71.9725 56.0816 72.1627 56.1922 72.3377 56.3241L72.8911 56.7457C72.9834 56.7457 73.181 56.9038 73.1283 57.0356Z" fill="#A2933A"/>
<path d="M72.9308 57.0092C72.9115 57.0418 72.8843 57.069 72.8517 57.0883C72.6255 57.1666 72.3795 57.1666 72.1534 57.0883C71.9162 57.0883 71.679 56.9302 71.4418 56.8379C71.2899 56.7835 71.1508 56.6983 71.0334 56.5876C70.8489 56.39 70.8884 56.166 71.152 56.0869C71.3363 56.0284 71.5342 56.0284 71.7185 56.0869C71.9016 56.1525 72.0712 56.2507 72.2192 56.3768C72.3905 56.4954 72.5618 56.614 72.7199 56.7457C72.878 56.8775 72.9703 56.8906 72.9308 57.0092Z" fill="#C7B348"/>
<path d="M95.1987 60.606C95.1908 60.6271 95.1784 60.6462 95.1625 60.6621C95.1466 60.678 95.1275 60.6903 95.1065 60.6982C94.8554 60.7899 94.5801 60.7899 94.3291 60.6982C94.0504 60.6259 93.7774 60.5334 93.5121 60.4216C93.3443 60.3552 93.1885 60.2618 93.051 60.1449C92.8401 59.9077 92.8928 59.6706 93.1827 59.5652C93.3946 59.5116 93.6165 59.5116 93.8284 59.5652C94.0326 59.6461 94.2236 59.7571 94.3949 59.8946C94.5873 60.0245 94.772 60.1652 94.9483 60.3162C95.0538 60.3557 95.2382 60.5138 95.1987 60.606Z" fill="#A2933A"/>
<path d="M94.9879 60.6061C94.9806 60.6238 94.9699 60.64 94.9563 60.6535C94.9427 60.6671 94.9266 60.6778 94.9088 60.6851C94.6872 60.7635 94.4453 60.7635 94.2237 60.6851C93.9812 60.6176 93.7435 60.534 93.5121 60.4348C93.3563 60.3803 93.213 60.2952 93.0905 60.1845C92.906 59.9868 92.9456 59.7629 93.2091 59.6838C93.3934 59.6253 93.5913 59.6253 93.7757 59.6838C93.9629 59.749 94.1369 59.8471 94.2895 59.9737C94.4607 60.0895 94.6236 60.2172 94.7771 60.3558C94.8693 60.3558 95.0406 60.5007 94.9879 60.6061Z" fill="#C7B348"/>
<path d="M63.8391 31.4757C63.2593 31.7787 58.5686 28.8406 57.8307 28.4849C55.5644 27.3869 53.2717 26.3417 50.9527 25.3492C47.4873 23.8604 41.9401 20.4348 38.0531 21.5679C40.5961 24.0844 43.7716 25.7313 46.2751 28.2345C47.4488 29.7153 48.7163 31.1191 50.0699 32.4374C51.683 33.4421 53.37 34.323 55.1164 35.0725C53.4562 34.1634 57.7516 32.6219 58.0547 32.5824C60.0356 32.5843 61.9988 32.2087 63.8391 31.4757V31.4757Z" fill="#EFDD90"/>
<path d="M90.139 17.6548C88.8214 15.1647 85.4614 14.1766 83.8671 16.7853C82.919 18.8446 82.6602 21.1548 83.1292 23.3729C83.1292 23.8472 83.3927 24.4269 83.8803 24.4796C84.3678 24.5323 84.5918 24.1634 84.8289 23.834C86.1466 22.029 87.2402 19.8814 89.2825 19.0777C89.7042 18.9196 90.2312 18.722 90.2839 18.2741C90.3023 18.0575 90.2516 17.8407 90.139 17.6548Z" fill="#9EAF60"/>
<path d="M93.2881 31.6864C93.2767 31.8192 93.2938 31.9528 93.3382 32.0784C93.3826 32.204 93.4533 32.3186 93.5456 32.4147C93.638 32.5107 93.7497 32.5859 93.8735 32.6353C93.9972 32.6847 94.13 32.707 94.2631 32.7009C94.5372 32.6674 94.7971 32.5603 95.0152 32.391C95.2333 32.2216 95.4014 31.9964 95.5017 31.7391C95.6891 31.2245 95.7785 30.6793 95.7652 30.1318C95.8838 27.7207 96.0024 25.3096 96.1078 22.8986C96.1078 24.1502 96.5558 31.8972 98.6245 31.2517C99.0988 31.1067 99.4678 30.5534 99.9421 30.6588C100.171 30.7275 100.371 30.8714 100.509 31.0672C100.838 31.4361 101.207 31.7787 101.536 32.1476L101.932 32.4506C102.193 32.5008 102.457 32.5316 102.722 32.5428L103.091 32.3716C103.292 32.3874 103.49 32.4227 103.684 32.477C103.869 32.477 104.119 32.6351 104.066 32.8195C104.036 32.894 103.98 32.9549 103.908 32.9908C101.984 34.3083 98.8221 34.1502 96.569 34.3083C93.9988 34.5659 91.4043 34.4326 88.874 33.9131C89.3221 34.0639 89.7962 34.1219 90.2674 34.0834C90.7387 34.0448 91.1971 33.9107 91.6147 33.6891C92.234 33.3333 92.8137 31.7391 93.2881 31.6864Z" fill="#577231"/>
<path d="M24.5211 60.7773C24.8791 61.2403 25.3273 61.6258 25.8387 61.9104C25.9442 61.9104 26.0496 61.7918 25.931 61.7391C25.4209 61.5228 24.9693 61.1887 24.6134 60.7642C24.6134 60.7642 24.6134 60.7642 24.6134 60.7642L24.5211 60.7773Z" fill="#577231"/>
<path d="M24.1389 56.6535C25.3751 58.1654 26.3544 59.8702 27.0377 61.6996C27.1695 61.9895 27.6306 61.8841 27.5384 61.5679C26.8628 59.6598 25.6946 57.9643 24.1521 56.6535H24.1389Z" fill="#577231"/>
<path d="M27.9732 59.2885C28.0786 60.0922 28.1577 60.9222 28.3158 61.7259C28.3158 61.9894 28.8297 61.9236 28.7901 61.7259C28.6847 60.9091 28.5134 60.1054 28.3553 59.3017C28.3553 59.0909 27.9337 59.1304 27.9732 59.3017V59.2885Z" fill="#577231"/>
<path d="M28.8297 55.191C29.2688 57.2326 29.5246 59.3094 29.5939 61.3966C29.6087 61.4678 29.6476 61.5317 29.704 61.5776C29.7604 61.6235 29.8309 61.6486 29.9036 61.6486C29.9763 61.6486 30.0468 61.6235 30.1032 61.5776C30.1596 61.5317 30.1985 61.4678 30.2132 61.3966C30.5056 59.2337 30.0401 57.0363 28.8956 55.1779L28.8297 55.191Z" fill="#577231"/>
<path d="M105.647 54.0843C105.996 54.5187 106.384 54.9201 106.807 55.2833C106.824 55.3063 106.845 55.3251 106.87 55.3384C106.895 55.3517 106.923 55.359 106.951 55.3598C106.98 55.3606 107.008 55.3548 107.034 55.343C107.059 55.3311 107.082 55.3135 107.1 55.2915C107.118 55.2694 107.13 55.2436 107.137 55.2159C107.143 55.1883 107.143 55.1595 107.136 55.132C107.129 55.1044 107.116 55.0788 107.098 55.057C107.08 55.0353 107.057 55.018 107.031 55.0066C106.624 54.6517 106.183 54.3384 105.713 54.0712L105.647 54.0843Z" fill="#577231"/>
<path d="M103.724 46.1133C105.334 48.6361 106.593 51.3665 107.466 54.2292C107.503 54.304 107.565 54.3632 107.642 54.3966C107.719 54.4299 107.804 54.4353 107.885 54.4118C107.965 54.3882 108.034 54.3372 108.08 54.2677C108.127 54.1982 108.147 54.1146 108.138 54.0316C107.345 51.0655 105.905 48.3119 103.921 45.9684C103.829 45.863 103.658 45.9684 103.724 46.1133Z" fill="#577231"/>
<path d="M108.414 52.1739C108.347 52.7958 108.414 53.425 108.612 54.0185C108.704 54.3215 109.205 54.1898 109.1 53.8867C108.915 53.3536 108.835 52.7901 108.862 52.2266C108.862 51.9368 108.454 51.95 108.414 52.2266V52.1739Z" fill="#577231"/>
<path d="M109.732 52.8195V53.4651C109.732 53.5228 109.755 53.5781 109.796 53.6188C109.837 53.6596 109.892 53.6825 109.949 53.6825C110.007 53.6825 110.062 53.6596 110.103 53.6188C110.144 53.5781 110.167 53.5228 110.167 53.4651V52.8195C110.156 52.7774 110.131 52.7401 110.096 52.7135C110.062 52.6869 110.019 52.6725 109.976 52.6725C109.932 52.6725 109.89 52.6869 109.855 52.7135C109.821 52.7401 109.796 52.7774 109.785 52.8195H109.732Z" fill="#577231"/>
<path d="M12.5174 37.6021C12.6985 38.2171 12.9185 38.82 13.1762 39.4071C13.2553 39.6047 13.5715 39.4071 13.4661 39.2358C13.165 38.6704 12.8352 38.1207 12.4779 37.5889C12.4779 37.5889 12.4779 37.5889 12.4779 37.5889L12.5174 37.6021Z" fill="#577231"/>
<path d="M14.125 37.892C13.9924 38.0234 13.8998 38.1897 13.8578 38.3715C13.8159 38.5534 13.8263 38.7434 13.8878 38.9196C13.9669 39.1173 14.2963 39.025 14.2172 38.8274C14.161 38.7089 14.1423 38.5761 14.1635 38.4466C14.1846 38.3171 14.2448 38.1972 14.3358 38.1028C14.4544 37.9579 14.2568 37.7602 14.125 37.892Z" fill="#577231"/>
<path d="M13.9142 34.6245C14.479 35.976 14.8002 37.4167 14.8628 38.8801C14.8628 39.1963 15.3899 39.1963 15.3635 38.8801C15.2323 37.3641 14.8213 35.8854 14.1513 34.5191C14.0854 34.4005 13.8483 34.5191 13.9142 34.6245V34.6245Z" fill="#577231"/>
<path d="M15.9038 37.9183L15.6666 38.0896C15.6453 38.1036 15.6274 38.1221 15.6142 38.1438C15.6009 38.1656 15.5927 38.19 15.5901 38.2153C15.5875 38.2406 15.5906 38.2662 15.5991 38.2902C15.6076 38.3142 15.6214 38.3359 15.6394 38.3539C15.6574 38.3719 15.6792 38.3857 15.7032 38.3942C15.7271 38.4027 15.7527 38.4058 15.778 38.4032C15.8034 38.4006 15.8278 38.3924 15.8495 38.3792C15.8713 38.3659 15.8898 38.348 15.9038 38.3267L16.0619 38.0764C16.0724 38.0543 16.0759 38.0294 16.0717 38.0053C16.0676 37.9811 16.0561 37.9588 16.0387 37.9415C16.0214 37.9241 15.9991 37.9126 15.9749 37.9084C15.9508 37.9043 15.9259 37.9077 15.9038 37.9183V37.9183Z" fill="#577231"/>
<path d="M16.5231 38.2081L16.2991 38.4058C16.1805 38.5243 16.365 38.722 16.4836 38.5902L16.6944 38.3794C16.7171 38.3567 16.7299 38.3259 16.7299 38.2938C16.7299 38.2617 16.7171 38.2309 16.6944 38.2081C16.6717 38.1854 16.6409 38.1727 16.6087 38.1727C16.5766 38.1727 16.5458 38.1854 16.5231 38.2081V38.2081Z" fill="#577231"/>
<path d="M11.2657 36.8906C11.6107 37.9358 12.089 38.9322 12.6888 39.8551C12.7255 39.9197 12.7864 39.9671 12.858 39.9869C12.9297 40.0067 13.0062 39.9971 13.0709 39.9605C13.1355 39.9238 13.183 39.8629 13.2027 39.7912C13.2225 39.7196 13.213 39.643 13.1763 39.5784C12.6502 38.6281 12.0133 37.7436 11.2789 36.9433L11.2657 36.8906Z" fill="#577231"/>
<path d="M13.1762 38.2082C13.3104 38.4262 13.4556 38.6372 13.611 38.8406C13.756 39.0382 14.0854 38.8406 13.9405 38.6561C13.7955 38.4717 13.6506 38.2345 13.4925 38.0237C13.3343 37.8129 13.0445 38.0237 13.1762 38.2082Z" fill="#577231"/>
<path d="M15.8115 37.8129V38.0237C15.8115 38.2345 16.1541 38.2345 16.1409 38.0237V37.8129C16.1307 37.7771 16.1091 37.7456 16.0794 37.7232C16.0497 37.7008 16.0135 37.6887 15.9762 37.6887C15.939 37.6887 15.9028 37.7008 15.8731 37.7232C15.8434 37.7456 15.8217 37.7771 15.8115 37.8129V37.8129Z" fill="#577231"/>
<path d="M16.892 38.2082V38.6429C16.892 38.6849 16.9086 38.7251 16.9383 38.7547C16.9679 38.7844 17.0081 38.801 17.0501 38.801C17.092 38.801 17.1322 38.7844 17.1619 38.7547C17.1915 38.7251 17.2082 38.6849 17.2082 38.6429V38.2082C17.2082 38.1697 17.1929 38.1329 17.1657 38.1057C17.1386 38.0785 17.1017 38.0632 17.0633 38.0632C17.0248 38.0632 16.988 38.0785 16.9608 38.1057C16.9336 38.1329 16.9183 38.1697 16.9183 38.2082H16.892Z" fill="#577231"/>
<path d="M93.8284 34.2556C94.4229 34.3932 95.0398 34.4044 95.639 34.2887C96.2381 34.173 96.8064 33.9328 97.3069 33.5836C97.8998 33.2147 97.2015 32.2661 96.7272 32.8327C95.9268 33.5708 94.9108 34.0326 93.8284 34.1502V34.2161V34.2556Z" fill="#364D1D"/>
<path d="M99.2043 32.4374C98.6051 32.4622 98.0214 32.6341 97.5045 32.9381C97.4234 32.9922 97.3636 33.0728 97.3352 33.1662C97.3069 33.2595 97.3118 33.3598 97.3491 33.4499C97.3864 33.54 97.4537 33.6144 97.5398 33.6604C97.6258 33.7065 97.7251 33.7212 97.8207 33.7022C98.4025 33.5374 98.9359 33.2346 99.3755 32.8195C99.5073 32.7009 99.3755 32.4111 99.2174 32.4374H99.2043Z" fill="#364D1D"/>
<path d="M106.728 33.0434C108.421 33.013 110.039 32.3448 111.261 31.1726C111.88 30.6324 110.786 29.7101 110.338 30.4611C109.518 31.7547 108.221 32.673 106.728 33.0171C106.728 33.0171 106.728 33.0171 106.728 33.0171V33.0434Z" fill="#364D1D"/>
<path d="M112.407 31.2516C112.2 31.0578 111.95 30.917 111.676 30.8413C111.403 30.7655 111.116 30.7572 110.839 30.8169C110.101 30.9618 110.417 32.1344 111.155 31.9499C111.264 31.9043 111.38 31.8808 111.498 31.8808C111.615 31.8808 111.732 31.9043 111.84 31.9499C112.288 32.1607 112.815 31.581 112.407 31.2253V31.2516Z" fill="#364D1D"/>
<path d="M79.7297 27.7998C80.4149 27.6153 80.8761 26.8643 81.2186 26.2978C81.6969 25.5793 81.9197 24.7208 81.8511 23.8604C81.8433 23.7511 81.7979 23.648 81.7227 23.5684C81.6475 23.4888 81.5471 23.4377 81.4384 23.4237C81.3298 23.4098 81.2197 23.4338 81.1268 23.4918C81.0339 23.5498 80.9639 23.6381 80.9288 23.7418C80.7443 24.4401 80.6916 25.1515 80.4808 25.8498C80.1735 26.4676 79.9094 27.106 79.6902 27.7602L79.7297 27.7998Z" fill="#364D1D"/>
<path d="M106.451 59.2095C107.49 59.1141 108.49 58.7658 109.363 58.195C109.943 57.8919 109.363 56.9697 108.836 57.2991C107.907 57.7229 107.093 58.3647 106.464 59.1699C106.464 59.1699 106.464 59.1699 106.464 59.1699L106.451 59.2095Z" fill="#364D1D"/>
<path d="M117.269 54.585C114.788 55.0817 112.358 55.805 110.009 56.7457C109.925 56.7651 109.846 56.8026 109.778 56.8555C109.71 56.9084 109.655 56.9755 109.615 57.0521C109.576 57.1287 109.554 57.2129 109.55 57.299C109.547 57.385 109.562 57.4708 109.595 57.5504C109.628 57.63 109.678 57.7014 109.741 57.7597C109.804 57.818 109.88 57.8618 109.962 57.888C110.044 57.9142 110.131 57.9223 110.216 57.9116C110.302 57.9009 110.384 57.8717 110.457 57.8261C112.823 56.9802 115.104 55.9127 117.269 54.6377V54.585Z" fill="#364D1D"/>
<path d="M111.182 53.8999V54.1107C111.184 54.1586 111.199 54.2048 111.227 54.244C111.255 54.2831 111.293 54.3135 111.337 54.3315C111.382 54.3496 111.43 54.3545 111.478 54.3457C111.525 54.3369 111.568 54.3148 111.603 54.282C111.636 54.2471 111.658 54.2035 111.667 54.1564C111.676 54.1092 111.671 54.0606 111.653 54.0162C111.635 53.9718 111.604 53.9335 111.565 53.9059C111.526 53.8783 111.48 53.8625 111.432 53.8604H111.208L111.182 53.8999Z" fill="#364D1D"/>
<path d="M24.1125 61.6733C24.9595 61.7184 25.7947 61.8917 26.5897 62.1871C27.1299 62.3452 27.3539 61.4361 26.8137 61.3571C25.9057 61.2556 24.9865 61.3408 24.1125 61.6074C24.1125 61.6074 24.1125 61.6733 24.1125 61.6733V61.6733Z" fill="#364D1D"/>
<path d="M32.0579 61.2253H31.8339C31.7609 61.2253 31.6896 61.2469 31.6289 61.2874C31.5683 61.328 31.521 61.3856 31.493 61.453C31.4651 61.5204 31.4578 61.5946 31.4721 61.6661C31.4863 61.7377 31.5214 61.8034 31.573 61.855C31.6246 61.9066 31.6904 61.9418 31.7619 61.956C31.8335 61.9702 31.9077 61.9629 31.9751 61.935C32.0425 61.9071 32.1001 61.8598 32.1407 61.7991C32.1812 61.7385 32.2028 61.6671 32.2028 61.5942V61.3702C32.2028 61.3248 32.1848 61.2812 32.1527 61.2491C32.1205 61.217 32.077 61.1989 32.0315 61.1989L32.0579 61.2253Z" fill="#364D1D"/>
<path d="M34.008 60.8564L33.7445 60.9882C33.0593 61.3702 34.008 62.3057 34.3901 61.6469L34.5351 61.3834C34.5813 61.3101 34.6013 61.2233 34.5916 61.1371C34.582 61.051 34.5434 60.9707 34.4821 60.9094C34.4208 60.8481 34.3405 60.8095 34.2543 60.7999C34.1682 60.7902 34.0813 60.8102 34.008 60.8564V60.8564Z" fill="#364D1D"/>
<path d="M35.5759 61.9236C37.4074 65.0329 41.4657 64.2688 44.3909 65.2964C44.9706 65.5072 45.2473 64.664 44.7862 64.361C43.6527 63.7645 42.374 63.4996 41.0968 63.5968C39.2125 63.3904 37.4052 62.7353 35.8263 61.6864C35.7948 61.6532 35.7515 61.6339 35.7058 61.6326C35.6601 61.6314 35.6157 61.6484 35.5825 61.6798C35.5493 61.7113 35.53 61.7546 35.5287 61.8003C35.5275 61.846 35.5445 61.8904 35.5759 61.9236V61.9236Z" fill="#364D1D"/>
<path d="M44.2592 36.7194C44.1629 36.8408 44.0923 36.9804 44.0515 37.1299C44.0107 37.2793 44.0007 37.4355 44.022 37.5889C44.022 37.6588 44.0497 37.7258 44.0992 37.7752C44.1486 37.8247 44.2156 37.8524 44.2855 37.8524C44.3554 37.8524 44.4224 37.8247 44.4718 37.7752C44.5213 37.7258 44.549 37.6588 44.549 37.5889C44.5703 37.4355 44.5603 37.2793 44.5195 37.1299C44.4787 36.9804 44.4081 36.8408 44.3119 36.7194H44.2592Z" fill="#364D1D"/>
<path d="M44.2723 34.0053C44.5333 35.1099 44.5913 36.2527 44.4436 37.3781C44.3382 38.2477 45.893 38.2872 45.8271 37.3781C45.7562 36.1194 45.3761 34.8976 44.7203 33.8208C44.687 33.7766 44.6399 33.7446 44.5865 33.73C44.533 33.7154 44.4763 33.7189 44.4251 33.74C44.3738 33.7611 44.331 33.7986 44.3034 33.8466C44.2758 33.8946 44.2648 33.9504 44.2723 34.0053V34.0053Z" fill="#364D1D"/>
<path d="M45.4977 36.7325C45.4581 37.0034 45.4581 37.2785 45.4977 37.5494C45.5283 37.7016 45.6107 37.8385 45.7308 37.9368C45.8509 38.0352 46.0013 38.0889 46.1566 38.0889C46.3118 38.0889 46.4622 38.0352 46.5823 37.9368C46.7024 37.8385 46.7848 37.7016 46.8154 37.5494C46.855 37.2785 46.855 37.0034 46.8154 36.7325C46.8154 36.5438 46.7404 36.3629 46.607 36.2294C46.4735 36.096 46.2926 36.0211 46.1039 36.0211C45.9151 36.0211 45.7342 36.096 45.6007 36.2294C45.4673 36.3629 45.3923 36.5438 45.3923 36.7325H45.4977Z" fill="#364D1D"/>
<path d="M47.0525 36.614C46.9932 36.9096 46.9932 37.2142 47.0525 37.5099C47.0866 37.6122 47.152 37.7012 47.2395 37.7643C47.327 37.8273 47.4322 37.8613 47.54 37.8613C47.6479 37.8613 47.753 37.8273 47.8405 37.7643C47.928 37.7012 47.9935 37.6122 48.0276 37.5099C48.0803 37.2136 48.0803 36.9103 48.0276 36.614C47.9952 36.5209 47.9347 36.4403 47.8544 36.3832C47.7741 36.3262 47.6781 36.2955 47.5796 36.2955C47.4811 36.2955 47.385 36.3262 47.3047 36.3832C47.2245 36.4403 47.1639 36.5209 47.1316 36.614H47.0525Z" fill="#364D1D"/>
<path d="M9.30249 40.1976C9.49306 40.2831 9.69169 40.3493 9.89542 40.3952C10.2775 40.4875 10.2775 39.8419 9.89542 39.9341C9.69129 39.9846 9.49267 40.0552 9.30249 40.1449C9.30249 40.1449 9.30249 40.1449 9.30249 40.1449V40.1976Z" fill="#364D1D"/>
<path d="M0.105407 41.5679C-0.461174 47.7734 1.42303 54.7431 2.56937 60.8696C2.66161 61.3571 3.42583 61.1463 3.32042 60.6588C2.68796 57.4835 2.16091 54.2951 1.68656 51.0936C1.40979 47.881 0.898948 44.6929 0.158112 41.5547C0.158112 41.5547 0.158112 41.5547 0.158112 41.5547L0.105407 41.5679Z" fill="#C6BA8E"/>
<path d="M2.74063 61.2648C5.62624 64.058 8.11655 67.1937 10.8967 70.0527C11.1471 70.3162 11.6214 69.9737 11.4106 69.6575C9.04667 66.3785 6.23473 63.447 3.05686 60.9486C2.83286 60.7774 2.52981 61.0672 2.74063 61.2648V61.2648Z" fill="#C6BA8E"/>
<path d="M11.1734 70.2635C14.2699 68.7747 16.2727 64.7036 17.1686 61.5679C17.1949 61.4735 17.1825 61.3726 17.1343 61.2874C17.0861 61.2021 17.0061 61.1395 16.9117 61.1133C16.8174 61.0871 16.7165 61.0995 16.6312 61.1476C16.546 61.1958 16.4833 61.2759 16.4571 61.3702C15.9867 63.1248 15.2299 64.7897 14.2172 66.2978C13.2816 67.6153 11.9772 68.8011 11.1339 70.2503L11.1734 70.2635Z" fill="#283308"/>
<path d="M31.8997 103.083C29.4716 102.445 27.1716 101.393 25.1008 99.9736C22.3469 97.6416 21.8067 92.6877 20.8316 89.3544C19.0748 83.2059 17.318 77.0838 15.5611 70.9881C15.5367 70.899 15.4778 70.8233 15.3975 70.7776C15.3172 70.7318 15.222 70.7199 15.1329 70.7444C15.0438 70.7688 14.968 70.8277 14.9223 70.908C14.8766 70.9883 14.8647 71.0835 14.8891 71.1726C17.0237 78.7878 19.2197 86.3856 21.4773 93.9657C22.1888 96.245 22.3996 98.8142 24.521 100.132C26.8252 101.447 29.2991 102.44 31.8734 103.083H31.8997Z" fill="#AE9F60"/>
<path d="M28.7506 95.8498C30.4738 101.826 33.4772 107.356 37.5524 112.055C37.7368 112.266 38.0399 111.95 37.8686 111.739C34.0119 106.96 30.9427 101.596 28.777 95.8498C28.777 95.8498 28.777 95.8498 28.777 95.8498H28.7506Z" fill="#283308"/>
<path d="M38.3694 111.989C41.2762 112.809 44.128 113.812 46.9076 114.993C49.9514 116.006 53.059 116.816 56.2101 117.418C56.8162 117.536 57.0665 116.601 56.4604 116.495C53.1312 115.875 49.844 115.048 46.6177 114.018C43.9825 113.175 41.1891 111.568 38.3826 111.937L38.3694 111.989Z" fill="#283308"/>
<path d="M64.2607 122.319C68.9082 119.32 72.3869 114.819 74.1166 109.565C74.1333 109.463 74.1148 109.357 74.0641 109.266C74.0134 109.176 73.9335 109.105 73.8373 109.065C73.7412 109.025 73.6344 109.019 73.5344 109.048C73.4344 109.076 73.347 109.138 73.2865 109.223C72.0744 111.737 70.6645 114.151 69.0701 116.443C67.5416 118.472 65.6969 120.224 64.2212 122.279L64.2607 122.319Z" fill="#1B0D00"/>
<path d="M64.3134 122.332C66.6851 118.656 67.423 113.544 68.1082 109.289C68.823 104.763 69.1054 100.179 68.9514 95.5995C68.9514 94.7826 67.6338 94.7826 67.6997 95.5995C67.9138 100.445 67.6446 105.3 66.8959 110.092C66.2371 114.203 64.6165 118.195 64.1685 122.306C64.1685 122.398 64.2739 122.411 64.3134 122.306V122.332Z" fill="#283308"/>
<path d="M68.1872 95.1252C69.3649 94.9229 70.5033 94.536 71.5604 93.9789C72.9889 93.3798 74.3833 92.7025 75.7373 91.9499C76.1589 91.6996 75.8822 90.9618 75.3947 91.1331C74.1078 91.6634 72.8499 92.2615 71.6263 92.9249C70.3656 93.4468 69.1994 94.1723 68.1741 95.0725L68.1872 95.1252Z" fill="#283308"/>
<path d="M75.7241 91.5415C77.8455 89.1963 79.0577 85.8893 80.0986 83.004C81.3692 79.6639 82.2534 76.1894 82.7339 72.6482C82.8261 71.9368 81.7193 71.9368 81.627 72.6482C81.1264 76.0716 80.2652 79.4324 79.0577 82.6746C77.9904 85.6126 76.2775 88.4585 75.6318 91.5151L75.7241 91.5415Z" fill="#283308"/>
<path d="M70.1637 67.3254C70.3766 68.0303 70.6823 68.7038 71.0729 69.328C71.4418 70.0527 71.8107 70.8037 72.127 71.5547C72.3378 72.0421 73.0757 71.5547 72.8517 71.1331C72.3498 69.6297 71.4369 68.297 70.2164 67.2859C70.2164 67.2859 70.2164 67.2859 70.2164 67.2859L70.1637 67.3254Z" fill="#283308"/>
<path d="M72.3378 72.3847C78.7486 73.4555 85.3133 73.1591 91.6015 71.5152C91.75 71.475 91.8765 71.3774 91.9531 71.244C92.0297 71.1106 92.0502 70.9522 92.01 70.8037C91.9698 70.6552 91.8722 70.5287 91.7388 70.4521C91.6054 70.3755 91.447 70.3551 91.2984 70.3953C85.1402 71.8984 78.7593 72.2645 72.4695 71.4756C71.9557 71.4756 71.8371 72.2925 72.3378 72.3847Z" fill="#283308"/>
<path d="M91.6411 70.8432C93.1959 69.2095 93.6175 66.2583 94.1314 64.1502C94.2632 63.5705 93.3935 63.3334 93.2486 63.8999C92.9192 65.1252 92.5634 66.3505 92.2077 67.5626C91.8136 68.6077 91.604 69.7133 91.5884 70.8301C91.5884 70.8301 91.5884 70.8301 91.5884 70.8301L91.6411 70.8432Z" fill="#283308"/>
<path d="M73.6818 109.447C76.8968 109.315 80.1645 107.694 83.0501 106.324C86.309 104.792 89.271 102.696 91.7991 100.132C92.313 99.6048 91.4961 98.8142 90.9822 99.3149C88.5211 101.818 85.6459 103.877 82.4835 105.402C79.6243 106.719 76.2643 107.523 73.6686 109.354L73.6818 109.447Z" fill="#1B0D00"/>
<path d="M91.4962 100.132C92.0631 98.8209 92.4445 97.4373 92.6293 96.0211C92.8928 94.5982 93.2618 93.1621 93.3935 91.726C93.3935 91.3439 92.8665 91.3044 92.7479 91.6337C92.3503 93.127 92.0554 94.6457 91.8651 96.1792C91.5661 97.475 91.4245 98.8021 91.4434 100.132H91.4962Z" fill="#1B0D00"/>
<path d="M87.8331 72.3583C87.7839 77.7658 87.2236 83.1565 86.1597 88.4585C86.1467 88.5389 86.164 88.6212 86.2081 88.6896C86.2523 88.7581 86.3202 88.8077 86.3988 88.829C86.4774 88.8503 86.5611 88.8417 86.6338 88.8049C86.7064 88.7681 86.7629 88.7057 86.7922 88.6297C88.4087 83.3492 88.9156 77.7915 88.2811 72.3056C88.2811 72.0421 87.8463 72.108 87.8331 72.3056V72.3583Z" fill="#283308"/>
<path d="M86.4364 88.4058C88.3027 90.1262 90.5661 91.3574 93.0245 91.9895C93.5384 92.1607 93.7756 91.3307 93.2485 91.1726C90.8768 90.4348 88.7554 89.1173 86.4232 88.3531L86.4364 88.4058Z" fill="#283308"/>
<path d="M92.9587 91.6733C96.2528 91.3044 99.5469 89.8287 102.683 88.7879C103.184 88.6298 102.96 87.8261 102.459 87.9974C99.3361 89.0777 95.8048 89.8946 92.9456 91.6206L92.9587 91.6733Z" fill="#283308"/>
<path d="M103.144 88.4322C107.097 82.6878 109.508 75.4677 111.603 68.8801C111.788 68.3136 110.905 68.0764 110.72 68.643C108.573 75.4414 105.331 81.6865 102.775 88.2741C102.683 88.498 103.039 88.6166 103.157 88.4322H103.144Z" fill="#251805"/>
<path d="M110.852 69.0777C112.066 68.9182 113.249 68.5715 114.357 68.0501C115.543 67.6153 116.781 67.2727 117.928 66.7325C118.428 66.5086 118.059 65.7839 117.572 65.8893C116.337 66.2111 115.137 66.6523 113.988 67.2068C112.814 67.5892 111.736 68.2181 110.826 69.0514L110.852 69.0777Z" fill="#283308"/>
<path d="M118.218 66.5744C118.943 64.9851 119.47 63.3124 119.786 61.5942C119.808 61.4975 119.793 61.3957 119.742 61.3104C119.691 61.2251 119.609 61.163 119.513 61.1373C119.417 61.1116 119.314 61.1243 119.228 61.1727C119.141 61.2211 119.076 61.3014 119.048 61.3966C118.544 63.0713 118.248 64.8013 118.165 66.5481C118.165 66.5481 118.165 66.5481 118.165 66.5481L118.218 66.5744Z" fill="#283308"/>
<path d="M105.279 85.191C109.199 84.0778 112.838 82.142 115.951 79.5125C116.268 79.249 115.859 78.7615 115.53 78.946C113.777 79.9209 112.143 81.1067 110.417 82.0948C108.637 83.0141 106.908 84.0301 105.239 85.1383L105.279 85.191Z" fill="#283308"/>
<path d="M116.202 72.4638C120.308 69.6554 123.904 66.1665 126.835 62.1476C126.863 62.1247 126.885 62.0959 126.9 62.0632C126.914 62.0306 126.922 61.995 126.921 61.9592C126.92 61.9233 126.911 61.8881 126.895 61.8562C126.878 61.8244 126.855 61.7966 126.826 61.7751C126.797 61.7536 126.764 61.7388 126.729 61.732C126.694 61.7252 126.657 61.7264 126.623 61.7356C126.588 61.7449 126.556 61.7618 126.529 61.7852C126.502 61.8087 126.48 61.8379 126.466 61.8709C123.353 65.6761 119.914 69.2028 116.188 72.4111C116.188 72.4111 116.188 72.4111 116.188 72.4111L116.202 72.4638Z" fill="#283308"/>
<path d="M126.888 62.2529C126.993 60.4875 127.085 58.722 127.177 56.9828C127.177 56.7193 126.782 56.7193 126.769 56.9828C126.677 58.7483 126.585 60.5138 126.519 62.2529C126.519 62.3019 126.538 62.3488 126.573 62.3834C126.607 62.418 126.654 62.4374 126.703 62.4374C126.752 62.4374 126.799 62.418 126.834 62.3834C126.868 62.3488 126.888 62.3019 126.888 62.2529Z" fill="#283308"/>
<path d="M126.492 56.7984C128.434 55.3954 130.23 53.8021 131.855 52.0422C132.119 51.7918 131.71 51.3834 131.447 51.6337C129.629 53.1777 127.969 54.899 126.492 56.7721C126.492 56.7721 126.492 56.7721 126.492 56.7721V56.7984Z" fill="#283308"/>
<path d="M25.2457 64.7035C25.6278 69.7365 27.5779 74.9539 29.528 79.5652C29.7652 80.1054 30.5558 79.6443 30.3318 79.1041C28.2894 74.4269 27.3935 69.3149 25.2984 64.6904L25.2457 64.7035Z" fill="#283308"/>
<path d="M29.897 79.3412C31.6231 81.9763 35.2465 83.7945 37.9345 85.3096C38.5143 85.639 39.0413 84.7431 38.4616 84.4269C36.8936 83.5705 35.4178 82.6614 33.9553 81.6864C32.7147 80.7354 31.3657 79.9349 29.9365 79.3017C29.9365 79.3017 29.9365 79.3017 29.9365 79.3017L29.897 79.3412Z" fill="#283308"/>
<path d="M37.8423 84.7431C38.7455 92.1006 40.1588 99.3864 42.0718 106.548C42.2168 107.181 43.1391 106.904 43.0205 106.285C41.9234 98.9831 40.3163 91.7674 38.2112 84.6904C38.1453 84.4796 37.7895 84.5059 37.8027 84.6904L37.8423 84.7431Z" fill="#283308"/>
<path d="M37.9476 112.069C39.9975 110.363 41.7748 108.355 43.2181 106.113C43.5212 105.692 42.8097 105.27 42.533 105.705C41.0704 107.879 39.3575 109.829 37.75 111.884C37.731 111.909 37.7217 111.941 37.724 111.972C37.7262 112.004 37.7398 112.034 37.7622 112.056C37.7847 112.079 37.8144 112.092 37.8461 112.095C37.8777 112.097 37.9091 112.088 37.9345 112.069H37.9476Z" fill="#283308"/>
<path d="M42.9415 105.889C46.2751 108.603 50.9922 110.237 54.8002 112.095C55.3009 112.332 55.7357 111.594 55.235 111.344C51.3875 109.473 47.1975 106.719 42.9811 105.837L42.9415 105.889Z" fill="#283308"/>
<path d="M64.0631 66.3768C64.7979 67.2331 65.8111 67.8029 66.9245 67.986C68.0379 68.1691 69.1802 67.9539 70.1506 67.3781C70.5854 67.1541 70.1506 66.469 69.7553 66.7062C68.8556 67.1153 67.8688 67.2958 66.8826 67.2314C65.8964 67.167 64.9414 66.8599 64.1026 66.3373L64.0631 66.3768Z" fill="#283308"/>
<path d="M52.3889 66.614L49.1739 66.5086C45.9319 66.6189 42.7021 66.0582 39.687 64.8616C43.2973 64.1897 47.9222 65.4414 51.2558 66.5086C55.2087 67.8261 59.8072 67.4045 63.826 66.9565C68.3191 66.4559 72.8517 66.3768 77.3448 65.8761C79.8005 65.6064 82.1977 64.9482 84.4468 63.9262C80.2831 64.3083 76.1458 64.8616 71.9953 65.2437C65.0118 65.9947 58.2656 65.7312 51.269 65.9552C51.2136 65.9351 51.153 65.9351 51.0977 65.9552L52.3889 66.614Z" fill="#C6BA8E"/>
<path d="M51.2689 66.2846C49.9513 67.0356 49.332 69.0646 49.0157 70.4612C48.9985 70.5794 49.0252 70.6998 49.0909 70.7996C49.1566 70.8994 49.2567 70.9716 49.3721 71.0025C49.4875 71.0334 49.6103 71.0208 49.717 70.9672C49.8238 70.9135 49.9072 70.8225 49.9513 70.7115C50.1621 69.9078 50.4124 69.1436 50.6891 68.3531C50.9965 67.7072 51.2052 67.0188 51.3084 66.311L51.2689 66.2846Z" fill="#C6BA8E"/>
<path d="M49.0289 70.7246C46.9207 70.1318 45.2078 70.8696 43.1259 71.2648C39.6981 71.9122 36.1518 71.329 33.112 69.6179C32.4795 69.2754 31.9129 70.2503 32.5586 70.5797C34.7934 71.8327 37.2973 72.5287 39.8582 72.6087C43.0074 72.6087 45.8798 71.2912 48.9894 71.0145C49.0278 71.0145 49.0647 70.9992 49.0919 70.972C49.1191 70.9449 49.1343 70.908 49.1343 70.8696C49.1343 70.8311 49.1191 70.7943 49.0919 70.7671C49.0647 70.7399 49.0278 70.7246 48.9894 70.7246H49.0289Z" fill="#C6BA8E"/>
<path d="M32.4136 70.079C32.4873 68.597 32.1739 67.1214 31.5044 65.7971C31.2936 65.3096 30.5821 65.6785 30.6743 66.1528C30.9025 67.5914 31.4868 68.9502 32.3741 70.1054L32.4136 70.079Z" fill="#C6BA8E"/>
<path d="M25.1535 64.8748C26.9323 65.1616 28.6649 65.6844 30.3054 66.4295C30.8324 66.6667 31.2804 65.8893 30.7534 65.6654C29.0256 64.9135 27.2039 64.3994 25.3379 64.137C24.8636 64.137 24.6396 64.7958 25.1271 64.8748H25.1535Z" fill="#283308"/>
<path d="M30.6217 65.9947C32.139 65.7063 33.5242 64.9399 34.5746 63.8076C34.9567 63.4124 34.3506 62.8063 33.9816 63.2016C32.9648 64.2451 31.7687 65.0975 30.4504 65.718C30.2791 65.7971 30.4504 66.0211 30.569 65.9947H30.6217Z" fill="#C6BA8E"/>
<path d="M43.4817 65.639C41.3199 64.7571 39.036 64.2106 36.7091 64.0184C36.2875 64.0184 36.2348 64.6245 36.6169 64.7431C38.843 65.4105 41.1578 65.7348 43.4817 65.7049V65.639Z" fill="#C6BA8E"/>
<path d="M93.9073 63.2411C101.062 62.9776 109.956 60.0922 115.516 55.5336C111.735 57.0092 107.966 58.6956 104.119 59.9868C100.719 61.1199 97.1487 61.5415 93.8942 63.1884L93.9073 63.2411Z" fill="#C6BA8E"/>
<path d="M113.764 56.9565C115.24 56.6008 124.384 52.8722 120.721 50.6588C120.622 50.5994 120.502 50.582 120.39 50.6104C120.278 50.6388 120.181 50.7107 120.122 50.8103C120.062 50.9099 120.045 51.029 120.073 51.1414C120.102 51.2538 120.174 51.3504 120.273 51.4098C121.591 52.2398 118.666 53.9394 118.033 54.3083C116.641 55.147 115.137 55.7856 113.566 56.2055C113.092 56.3241 113.29 57.0619 113.764 56.9565Z" fill="#C6BA8E"/>
<path d="M118.942 61.1594C123.145 62.8985 121.802 53.7549 121.722 52.1607C121.722 51.6469 120.906 51.6469 120.932 52.1607C121.064 54.5981 122.434 60.5401 118.942 61.0935C118.942 61.0935 118.942 61.0935 118.942 61.1594Z" fill="#283308"/>
<path d="M125.03 46.2714C127.628 47.3185 129.902 49.0373 131.618 51.2516C131.75 51.4361 132.053 51.2516 131.921 51.0804C130.248 48.7133 127.801 47.0034 125.003 46.2451C125.003 46.2451 125.003 46.2451 125.003 46.2451L125.03 46.2714Z" fill="#283308"/>
<path d="M117.743 66.0738C115.437 70.0264 115.556 74.8221 115.227 79.249C115.227 79.7497 115.964 79.7497 116.004 79.249C116.134 74.8063 116.735 70.3899 117.796 66.0738C117.796 66.0738 117.796 66.0738 117.796 66.0738H117.743Z" fill="#283308"/>
<path d="M121.367 60.3294L124.859 63.6627C125.017 63.8076 125.241 63.5705 125.096 63.4387L121.525 60.1844C121.42 60.0922 121.275 60.1844 121.367 60.3294V60.3294Z" fill="#283308"/>
<path d="M32.2819 70.8827C33.9648 73.6514 36.3517 75.9245 39.1994 77.4703C39.2821 77.5057 39.3749 77.5096 39.4603 77.4814C39.5457 77.4531 39.6178 77.3947 39.6631 77.317C39.7084 77.2393 39.7238 77.1478 39.7064 77.0595C39.6889 76.9713 39.6398 76.8925 39.5683 76.8379C36.9923 75.0321 34.5686 73.0184 32.3214 70.8168C32.3214 70.8168 32.3214 70.8168 32.3214 70.8168L32.2819 70.8827Z" fill="#283308"/>
<path d="M39.3575 77.7339C44.0351 78.5507 49.1343 76.8907 53.2453 74.7431C53.6538 74.5323 53.2453 73.8999 52.8764 74.1239C48.4755 76.4295 44.2196 76.8907 39.3839 77.4967C39.2653 77.4967 39.2126 77.7075 39.3839 77.7339H39.3575Z" fill="#283308"/>
<path d="M49.0289 71.1462C50.3107 72.5279 51.7629 73.741 53.3508 74.7563C53.6538 74.9539 53.9305 74.4796 53.6275 74.282C52.1111 73.2446 50.6712 72.0999 49.3188 70.8564C49.2785 70.8317 49.2309 70.8213 49.1839 70.8268C49.1369 70.8324 49.0932 70.8537 49.0597 70.8871C49.0262 70.9206 49.005 70.9644 48.9994 71.0114C48.9938 71.0584 49.0042 71.1059 49.0289 71.1462V71.1462Z" fill="#283308"/>
<path d="M53.6671 74.2029C54.2527 72.8092 54.6216 71.3341 54.7607 69.8287C54.7607 69.4203 54.1809 69.4335 54.1414 69.8287C53.9448 71.2555 53.6765 72.6714 53.3376 74.0712C53.3376 74.2556 53.5748 74.3874 53.6671 74.2029V74.2029Z" fill="#283308"/>
<path d="M51.2294 66.6272C52.3852 67.4229 53.4117 68.3916 54.2731 69.4994C54.2982 69.5305 54.3292 69.5564 54.3643 69.5756C54.3994 69.5948 54.4379 69.6068 54.4777 69.6111C54.5174 69.6154 54.5576 69.6118 54.596 69.6005C54.6344 69.5893 54.6702 69.5706 54.7013 69.5455C54.7325 69.5204 54.7584 69.4894 54.7775 69.4543C54.7967 69.4192 54.8088 69.3807 54.8131 69.3409C54.8174 69.3012 54.8138 69.261 54.8025 69.2226C54.7912 69.1842 54.7725 69.1484 54.7474 69.1173C53.8386 67.96 52.6247 67.0794 51.2425 66.5745C51.2425 66.5745 51.2425 66.5745 51.2425 66.5745L51.2294 66.6272Z" fill="#283308"/>
<path d="M53.2059 91.5547C52.9394 98.7508 53.6576 105.95 55.3404 112.951C56.4736 117.681 58.9244 121.673 64.1817 122.174C64.265 122.167 64.3436 122.133 64.4047 122.076C64.4658 122.019 64.5057 121.943 64.518 121.86C64.5302 121.778 64.514 121.693 64.4721 121.621C64.4302 121.549 64.3649 121.493 64.2871 121.462C57.699 120.145 56.1969 114.361 55.3141 108.524C54.4444 102.899 54.3127 97.1541 53.364 91.5283H53.2454L53.2059 91.5547Z" fill="#283308"/>
<path d="M45.221 86.7325C47.6452 88.6845 50.2379 90.4172 52.9687 91.9104C53.1005 91.9895 53.1927 91.805 53.0741 91.7259C50.5179 89.9868 47.8036 88.3794 45.1683 86.7062L45.221 86.7325Z" fill="#283308"/>
<path d="M61.1116 69.1568C58.8674 68.7115 56.5961 68.4166 54.3126 68.274C53.7987 68.274 53.7856 69.0514 54.3126 69.0777C56.5738 69.2666 58.8448 69.3106 61.1116 69.2095C61.1116 69.2095 61.1116 69.2095 61.1116 69.2095V69.1568Z" fill="#283308"/>
<path d="M11.1339 70.2503C11.7216 70.7274 12.4272 71.0369 13.1762 71.1463C14.0388 71.3556 14.9239 71.4574 15.8115 71.4493C16.2727 71.4493 16.2595 70.7773 15.8115 70.7378C15.0209 70.6719 14.2303 70.5929 13.4529 70.5007C12.7032 70.3343 11.9406 70.2329 11.1734 70.1976L11.1339 70.2503Z" fill="#283308"/>
<path d="M15.4294 71.1463C18.0789 69.2525 20.1463 66.6559 21.3983 63.6495C21.5037 63.4124 21.1743 63.2016 21.0294 63.4387C20.2179 64.902 19.3112 66.3104 18.315 67.6548C17.3927 68.8406 16.2859 69.9078 15.4163 71.1331L15.4294 71.1463Z" fill="#283308"/>
<path d="M109.363 83.4783C108.783 89.025 108.138 94.5982 107.215 100.092C107.215 100.25 107.426 100.329 107.453 100.171C108.335 94.6113 109.126 89.0777 109.6 83.4783C109.6 83.3202 109.376 83.3202 109.363 83.4783Z" fill="#283308"/>
<path d="M107.321 100.132C105.147 100.764 103.368 102.477 101.392 103.465C101.115 103.61 101.392 104.032 101.642 103.9C103.64 102.81 105.54 101.549 107.321 100.132Z" fill="#283308"/>
<path d="M101.326 103.663C101.326 106.298 101.181 108.933 101.326 111.489C101.319 111.512 101.317 111.537 101.321 111.562C101.326 111.586 101.336 111.609 101.35 111.628C101.365 111.648 101.384 111.664 101.406 111.675C101.428 111.686 101.453 111.692 101.477 111.692C101.502 111.692 101.526 111.686 101.548 111.675C101.57 111.664 101.589 111.648 101.604 111.628C101.619 111.609 101.629 111.586 101.633 111.562C101.637 111.537 101.636 111.512 101.629 111.489C101.813 108.854 101.629 106.219 101.629 103.663C101.629 103.61 101.608 103.56 101.571 103.523C101.534 103.486 101.483 103.465 101.431 103.465C101.379 103.465 101.328 103.486 101.291 103.523C101.254 103.56 101.233 103.61 101.233 103.663H101.326Z" fill="#283308"/>
<path d="M101.326 111.304C97.1619 115.942 93.0113 120.619 87.8199 124.15C82.6284 127.681 76.5146 129.934 70.559 132.055C70.1768 132.187 70.335 132.806 70.7302 132.661C76.7255 130.474 82.7997 128.234 88.0966 124.598C93.2019 120.916 97.7427 116.508 101.576 111.515C101.708 111.344 101.484 111.094 101.326 111.265V111.304Z" fill="#283308"/>
<path d="M70.0978 131.937C69.505 134.535 69.1391 137.18 69.0042 139.842C69.0042 140.132 69.4258 140.132 69.4521 139.842C69.9095 137.232 70.1344 134.587 70.1241 131.937H70.0978Z" fill="#283308"/>
<path d="M50.4784 116.021C50.9019 118.512 51.6783 120.93 52.7842 123.202C53.6151 125.559 54.7301 127.807 56.1047 129.895C59.1879 133.953 64.4584 137.075 68.6353 139.881C68.8988 140.066 69.1492 139.631 68.8857 139.46C64.7088 136.667 59.5832 133.663 56.5 129.644C53.652 125.526 51.6171 120.902 50.5047 116.021C50.5047 116.021 50.5047 116.021 50.5047 116.021H50.4784Z" fill="#283308"/>
<path d="M80.4676 120.448C76.7185 124.213 73.1985 128.199 69.9265 132.385C69.7421 132.648 70.1637 132.978 70.3745 132.727C73.6818 128.63 77.6874 124.954 80.4807 120.474L80.4676 120.448Z" fill="#271A06"/>
<path d="M80.797 113.505C80.4808 115.784 80.3095 118.05 80.1382 120.329C80.1382 120.58 80.4939 120.58 80.5071 120.329C80.6652 118.063 80.8102 115.797 80.8234 113.518L80.797 113.505Z" fill="#271A06"/>
<path d="M90.5738 105.942C90.5252 107.91 90.8194 109.872 91.4434 111.739C91.4434 111.764 91.4531 111.787 91.4704 111.804C91.4877 111.822 91.5112 111.831 91.5357 111.831C91.5601 111.831 91.5836 111.822 91.6009 111.804C91.6182 111.787 91.6279 111.764 91.6279 111.739C91.2458 109.842 91.0086 107.892 90.6001 105.995L90.5738 105.942Z" fill="#283308"/>
<path d="M91.5225 111.726C92.2472 112.726 93.0826 113.641 94.0128 114.453C94.2104 114.598 94.4081 114.256 94.2104 114.124C93.2222 113.452 92.6688 112.134 91.5752 111.7L91.5225 111.726Z" fill="#283308"/>
<path d="M93.9865 114.005C94.1269 115.692 94.1621 117.386 94.0919 119.078C94.0919 119.368 94.553 119.381 94.553 119.078C94.6513 117.369 94.4688 115.655 94.0128 114.005H93.9865Z" fill="#283308"/>
<path d="M97.5045 72.1212C98.0447 73.4387 98.5718 74.7563 98.9803 76.166C98.9803 76.2846 99.2174 76.166 99.1779 76.166C98.7737 74.7927 98.2214 73.4674 97.5309 72.2134C97.5309 72.2134 97.5309 72.2134 97.5309 72.2134L97.5045 72.1212Z" fill="#283308"/>
<path d="M98.9671 76.4954C99.7969 76.8691 100.646 77.1989 101.51 77.4835C101.543 77.4894 101.577 77.4837 101.606 77.4675C101.635 77.4513 101.658 77.4256 101.67 77.3947C101.682 77.3637 101.684 77.3295 101.674 77.2977C101.664 77.2659 101.643 77.2384 101.616 77.22C100.782 76.8377 99.9284 76.4991 99.0593 76.2055C98.8617 76.1265 98.7958 76.4163 98.9671 76.4954V76.4954Z" fill="#283308"/>
<path d="M101.457 77.6021C102.397 79.6092 103.597 81.4832 105.028 83.1752C105.305 83.4914 105.753 83.0303 105.476 82.7141C104.058 81.1002 102.825 79.3325 101.8 77.444C101.681 77.22 101.352 77.444 101.457 77.6548V77.6021Z" fill="#283308"/>
<path d="M46.4201 83.6627C45.9533 84.0259 45.5797 84.4949 45.3299 85.0309C45.0802 85.567 44.9616 86.1548 44.9838 86.7457C44.9959 86.7943 45.0238 86.8374 45.0632 86.8682C45.1026 86.899 45.1512 86.9158 45.2013 86.9158C45.2513 86.9158 45.2999 86.899 45.3393 86.8682C45.3787 86.8374 45.4066 86.7943 45.4187 86.7457C45.4214 85.6405 45.7769 84.5651 46.4332 83.6759C46.4332 83.6759 46.4332 83.6759 46.4332 83.6759L46.4201 83.6627Z" fill="#283308"/>
<path d="M61.0984 69.1963C62.4222 70.6498 63.9177 71.9373 65.552 73.0303C65.7101 73.1357 65.8287 72.8985 65.6969 72.7931C64.1948 71.6337 62.8772 69.9341 61.1116 69.1699L61.0984 69.1963Z" fill="#283308"/>
<path d="M65.3939 73.228C63.6215 76.7469 61.4745 80.0643 58.9902 83.1225C58.9633 83.1485 58.9437 83.1811 58.9335 83.2171C58.9233 83.2531 58.9229 83.2912 58.9323 83.3274C58.9417 83.3636 58.9605 83.3967 58.9869 83.4232C59.0133 83.4497 59.0463 83.4687 59.0825 83.4783C59.9953 83.6755 60.9333 83.7289 61.8626 83.6364C62.113 83.6364 62.1262 83.228 61.8626 83.2411C61.3883 83.2411 60.545 83.4783 60.1234 83.0962C59.7017 82.7141 60.1234 82.3584 60.6241 81.7787C61.2038 81.0277 61.7704 80.2635 62.2975 79.473C63.6138 77.5495 64.7391 75.502 65.6574 73.3597C65.7365 73.1884 65.4861 73.0171 65.3939 73.2016V73.228Z" fill="#283308"/>
<path d="M61.9285 83.4651C62.382 85.4584 62.6729 87.4853 62.7981 89.5257C62.7981 89.9341 63.4701 89.9341 63.4306 89.5257C63.29 87.4391 62.8461 85.3842 62.1129 83.4256C62.1129 83.3333 61.9285 83.4256 61.9548 83.4256L61.9285 83.4651Z" fill="#283308"/>
<path d="M64.8931 90.5534C64.7254 90.3078 64.5091 90.0992 64.2575 89.9406C64.0059 89.782 63.7245 89.6766 63.4306 89.6311C63.4089 89.6243 63.3859 89.6227 63.3635 89.6265C63.341 89.6302 63.3198 89.6392 63.3015 89.6527C63.2832 89.6661 63.2683 89.6837 63.258 89.704C63.2478 89.7243 63.2424 89.7467 63.2424 89.7694C63.2424 89.7922 63.2478 89.8146 63.258 89.8349C63.2683 89.8551 63.2832 89.8727 63.3015 89.8862C63.3198 89.8997 63.341 89.9086 63.3635 89.9124C63.3859 89.9161 63.4089 89.9146 63.4306 89.9078C63.9793 89.9674 64.4955 90.1978 64.9063 90.5665C64.9063 90.5665 64.9063 90.5665 64.9063 90.5665L64.8931 90.5534Z" fill="#283308"/>
<path d="M73.7872 88.7879C74.0112 89.17 74.1693 89.6179 74.3802 90.0132C74.591 90.4084 74.8545 90.7905 75.0917 91.1726C75.3289 91.5547 75.7505 91.1726 75.5529 90.9091C75.3552 90.6456 75.0785 90.2108 74.815 89.8814C74.5515 89.552 74.1298 89.1568 73.8268 88.7615L73.7872 88.7879Z" fill="#283308"/>
<path d="M12.2935 59.0777C14.0618 60.3907 16.0099 61.4423 18.0778 62.2003C20.359 63.3546 22.7351 64.3112 25.1799 65.0593C25.6279 65.1515 25.8255 64.4664 25.3643 64.361C23.3301 63.7327 21.344 62.9577 19.4218 62.0422C16.976 61.249 14.604 60.2439 12.333 59.0382L12.2935 59.0777Z" fill="#283308"/>
<path d="M25.1535 82.3057C24.8372 83.6232 24.5869 84.9407 24.3234 86.2582C24.3234 86.3768 24.4815 86.4163 24.4947 86.2582C24.745 84.9407 24.9954 83.6232 25.1798 82.3057H25.1535Z" fill="#283308"/>
<path d="M24.0467 86.5481C25.0226 87.2989 26.0582 87.9687 27.1432 88.5507C27.3276 88.6561 27.4858 88.3794 27.3145 88.2609C26.2999 87.5698 25.2339 86.9576 24.1258 86.4295C24.1258 86.4295 23.994 86.5086 24.0467 86.5481V86.5481Z" fill="#283308"/>
<path d="M28.7638 95.7971C30.5904 92.9864 32.2236 90.0548 33.6522 87.0224C33.7576 86.8248 33.4414 86.6403 33.3359 86.8511C31.593 89.7158 30.0562 92.7009 28.7374 95.7839C28.7374 95.7839 28.7374 95.7839 28.7374 95.7839L28.7638 95.7971Z" fill="#283308"/>
<path d="M33.3755 86.5745C31.4016 87.4368 29.3016 87.9751 27.1563 88.1687C26.8401 88.1687 26.9718 88.7088 27.288 88.643C29.4588 88.4386 31.5794 87.8684 33.56 86.9565C33.584 86.9463 33.6056 86.931 33.6233 86.9117C33.641 86.8925 33.6544 86.8697 33.6626 86.8448C33.6708 86.82 33.6736 86.7937 33.6709 86.7677C33.6682 86.7417 33.66 86.7166 33.6468 86.694C33.6336 86.6714 33.6158 86.6519 33.5945 86.6367C33.5732 86.6215 33.5489 86.6111 33.5232 86.606C33.4976 86.6009 33.4711 86.6014 33.4457 86.6073C33.4202 86.6132 33.3963 86.6245 33.3755 86.6403V86.5745Z" fill="#283308"/>
<path d="M124.318 54.3478C124.69 54.7875 125.1 55.1931 125.544 55.5599C125.909 55.9389 126.301 56.2911 126.716 56.614C126.927 56.7589 127.151 56.4559 126.98 56.2846C126.564 55.8972 126.124 55.5364 125.662 55.2042C125.248 54.874 124.807 54.5787 124.345 54.3215L124.318 54.3478Z" fill="#283308"/>
</g>
<defs>
<clipPath id="clip0_67_1117">
<rect width="132" height="140" fill="white"/>
</clipPath>
</defs>
</svg>
