<svg width="18" height="18" viewBox="0 0 18 18" fill="none" xmlns="http://www.w3.org/2000/svg">
<g id="gg:menu-left">
<rect width="18" height="18" fill="#F6F8FA"/>
<path id="Vector" d="M1.5 4.49625C1.5 4.08375 1.8345 3.75 2.24625 3.75H8.25375C8.45167 3.75 8.64148 3.82862 8.78143 3.96857C8.92138 4.10852 9 4.29833 9 4.49625C9 4.69417 8.92138 4.88398 8.78143 5.02393C8.64148 5.16388 8.45167 5.2425 8.25375 5.2425H2.24625C2.04833 5.2425 1.85852 5.16388 1.71857 5.02393C1.57862 4.88398 1.5 4.69417 1.5 4.49625V4.49625ZM1.5 9C1.5 8.5875 1.8345 8.25375 2.24625 8.25375H15.7537C15.9517 8.25375 16.1415 8.33237 16.2814 8.47232C16.4214 8.61227 16.5 8.80208 16.5 9C16.5 9.19792 16.4214 9.38773 16.2814 9.52768C16.1415 9.66763 15.9517 9.74625 15.7537 9.74625H2.24625C2.04833 9.74625 1.85852 9.66763 1.71857 9.52768C1.57862 9.38773 1.5 9.19792 1.5 9V9ZM2.24625 12.7575C2.04833 12.7575 1.85852 12.8361 1.71857 12.9761C1.57862 13.116 1.5 13.3058 1.5 13.5037C1.5 13.7017 1.57862 13.8915 1.71857 14.0314C1.85852 14.1714 2.04833 14.25 2.24625 14.25H11.2538C11.4517 14.25 11.6415 14.1714 11.7814 14.0314C11.9214 13.8915 12 13.7017 12 13.5037C12 13.3058 11.9214 13.116 11.7814 12.9761C11.6415 12.8361 11.4517 12.7575 11.2538 12.7575H2.24625Z" fill="#CBCBCB"/>
</g>
</svg>
